<?xml version="1.0" encoding="UTF-8"?>
<svg xmlns="http://www.w3.org/2000/svg" fill="#29b554" id="Layer_1" data-name="Layer 1" viewBox="0 0 24 24">
  <path d="m24.049,19.573l-3.793,3.707c-.48.48-1.115.72-1.751.72-.641,0-1.283-.243-1.772-.732l-3.75-3.75,2.121-2.121,1.896,1.896V0h3v19.334l1.951-1.907,2.098,2.146ZM12,6c0,.843-.175,1.644-.489,2.372.319.504.489,1.057.489,1.628v10.25c0,2.173-2.523,3.75-6,3.75s-6-1.577-6-3.75v-10.25c0-.572.17-1.124.489-1.628-.314-.728-.489-1.529-.489-2.372C0,2.686,2.686,0,6,0s6,2.686,6,6Zm-9.295-1.626c0,1.033.734,1.929,1.747,2.131l2.791.559c.268.054.462.291.462.563,0,.316-.258.574-.574.574h-2.126c-.316,0-.585-.211-.671-.5h-1.62c.102,1.175,1.09,2.1,2.291,2.1h.2v1.149c.248.03.508.052.795.052.291,0,.554-.022.804-.053v-1.147h.326c1.199,0,2.174-.975,2.174-2.173,0-1.033-.734-1.929-1.747-2.131l-2.792-.559c-.267-.054-.461-.291-.461-.562,0-.316.257-.574.573-.574h2.127c.316,0,.585.211.671.5h1.62c-.102-1.175-1.09-2.1-2.291-2.1h-.2v-1.2h-1.6v1.2h-.327c-1.198,0-2.173.975-2.173,2.173Zm.295,10.626c.077.263,1.121,1,3,1s2.915-.732,3-1.014v-1.491c-.873.322-1.891.505-3,.505s-2.127-.183-3-.505v1.505Zm6,5.162v-1.667c-.873.322-1.891.505-3,.505s-2.127-.183-3-.505v1.667c.217.275,1.275.838,3,.838s2.783-.563,3-.838Z"/>
</svg>