<svg xmlns="http://www.w3.org/2000/svg" xmlns:xlink="http://www.w3.org/1999/xlink" width="500" zoomAndPan="magnify" viewBox="0 0 375 187.499995" height="250" preserveAspectRatio="xMidYMid meet" version="1.0"><defs><clipPath id="2842b31732"><path d="M 230 63.238281 L 303.324219 63.238281 L 303.324219 138.855469 L 230 138.855469 Z M 230 63.238281 " clip-rule="nonzero"/></clipPath><clipPath id="1fd5e2082d"><path d="M 223.660156 93.144531 L 303.664062 93.144531 L 303.664062 107.703125 L 223.660156 107.703125 Z M 223.660156 93.144531 " clip-rule="nonzero"/></clipPath><clipPath id="08f08e0fb7"><path d="M 223.660156 96.003906 L 303.664062 96.003906 L 303.664062 120.964844 L 223.660156 120.964844 Z M 223.660156 96.003906 " clip-rule="nonzero"/></clipPath></defs><path fill="#e1ebf1" d="M 194.542969 59.445312 C 177.726562 80.671875 171.640625 117.140625 194.542969 140.898438 C 217.445312 164.65625 255.453125 155.324219 282.285156 159.5625 C 309.121094 163.800781 342.207031 163.800781 348.976562 126.472656 C 355.777344 89.148438 339.644531 79.816406 293.804688 53.496094 C 247.96875 27.175781 226.8125 18.699219 194.542969 59.445312 Z M 194.542969 59.445312 " fill-opacity="1" fill-rule="nonzero"/><path fill="#293241" d="M 271.433594 70.0625 C 265.023438 71.234375 258.613281 72.378906 252.230469 73.546875 L 244.160156 66.292969 C 242.578125 64.757812 240.863281 62.601562 241.203125 60.3125 C 241.488281 58.257812 243.148438 57.921875 244.339844 55.242188 C 245.949219 51.703125 243.820312 50.484375 245.121094 47.023438 C 246.546875 43.226562 249.710938 43.046875 250.4375 39.40625 C 250.777344 37.691406 250.386719 36.15625 250.023438 35.191406 C 249.84375 32.75 249.636719 30.304688 249.453125 27.886719 C 248.855469 26.300781 248.027344 23.359375 248.726562 19.929688 C 249.710938 15.09375 253.476562 10.4375 258.664062 9.214844 C 261.363281 8.566406 263.726562 9.035156 265.074219 9.425781 C 266.164062 9.214844 273.300781 7.96875 278.074219 12.441406 C 283.863281 17.875 281.527344 27.445312 280.980469 29.707031 C 280.410156 32.074219 279.554688 33.945312 278.828125 35.269531 C 278.699219 36.257812 278.59375 37.847656 279.191406 39.589844 C 280.28125 42.890625 282.722656 43.671875 284.175781 46.84375 C 285.394531 49.496094 283.890625 50.042969 284.980469 52.902344 C 286.171875 56.023438 288.066406 56.28125 289.285156 58.933594 C 290.011719 60.496094 290.53125 62.992188 289.390625 66.8125 C 284.382812 67.722656 279.398438 68.632812 274.390625 69.542969 M 274.390625 69.542969 C 273.40625 69.726562 272.417969 69.90625 271.433594 70.089844 " fill-opacity="1" fill-rule="nonzero"/><g clip-path="url(#2842b31732)"><path fill="#98c1d9" d="M 295.253906 128.726562 C 295.671875 131.042969 296.085938 133.382812 296.476562 135.695312 M 296.476562 135.695312 C 287.390625 137.699219 275.53125 139.335938 261.703125 138.765625 C 253.113281 138.402344 245.457031 137.257812 238.96875 135.878906 C 239.515625 132.289062 240.058594 128.675781 240.578125 125.085938 C 239.28125 124.4375 237.90625 123.707031 236.476562 122.824219 C 234.609375 121.652344 232.949219 120.484375 231.546875 119.339844 C 230.507812 113.929688 229.707031 106.988281 230.199219 98.925781 C 230.875 87.40625 233.882812 78.046875 236.660156 71.492188 C 237.800781 68.816406 240.292969 67.878906 240.292969 67.878906 C 241.644531 67.046875 242.578125 66.890625 245.25 66.03125 C 246.574219 65.617188 248.492188 64.964844 250.855469 64.054688 C 259.261719 63.847656 267.617188 63.640625 275.972656 63.40625 C 280.4375 64.523438 284.902344 65.667969 289.390625 66.785156 C 291.726562 67.386719 293.59375 69.152344 294.292969 71.492188 C 295.878906 76.796875 297.410156 82.46875 298.757812 88.527344 C 300.964844 98.433594 302.367188 107.664062 303.222656 116.011719 C 302.726562 117.234375 301.898438 118.820312 300.546875 120.457031 C 298.445312 123.007812 296.058594 124.382812 294.605469 125.085938 C 294.8125 126.308594 295.019531 127.503906 295.253906 128.726562 " fill-opacity="1" fill-rule="nonzero"/></g><g clip-path="url(#1fd5e2082d)"><path fill="#e0fbfc" d="M 275.871094 103.167969 L 253.191406 107.613281 L 223.660156 99.058594 C 224.59375 98.25 225.503906 97.445312 226.4375 96.640625 C 231.886719 95.234375 240.8125 93.753906 251.375 95.78125 C 256.148438 96.691406 260.195312 98.148438 263.441406 99.578125 C 269.488281 96.378906 280.542969 91.855469 293.828125 93.570312 C 296.5 93.910156 298.964844 94.480469 301.222656 95.15625 C 302.027344 96.015625 302.832031 96.875 303.664062 97.730469 L 278.207031 102.722656 M 278.207031 102.722656 L 275.871094 103.191406 " fill-opacity="1" fill-rule="nonzero"/></g><g clip-path="url(#08f08e0fb7)"><path fill="#293241" d="M 272.027344 117.960938 C 269.046875 118.949219 266.0625 119.9375 263.078125 120.925781 L 227.863281 117.882812 C 226.460938 111.617188 225.058594 105.324219 223.660156 99.058594 C 229.652344 98.484375 237.101562 98.304688 245.585938 99.316406 C 252.175781 100.097656 257.964844 101.449219 262.792969 102.878906 C 266.191406 101.058594 270.5 99.1875 275.636719 97.859375 C 287.496094 94.84375 297.695312 96.300781 303.636719 97.707031 C 301.300781 102.699219 298.964844 107.691406 296.628906 112.683594 C 291.855469 113.308594 287.082031 113.929688 282.332031 114.53125 C 280.28125 115.207031 278.207031 115.90625 276.128906 116.582031 M 276.128906 116.582031 C 274.753906 117.050781 273.378906 117.492188 272.027344 117.960938 " fill-opacity="1" fill-rule="nonzero"/></g><path fill="#ce8e72" d="M 253.476562 62.835938 C 252.773438 63.304688 251.945312 63.746094 250.90625 64.054688 C 252.621094 64.734375 255.109375 65.539062 258.222656 65.980469 C 258.015625 68.398438 258.015625 71.675781 258.769531 75.421875 C 259.703125 80.074219 261.417969 83.636719 262.765625 85.953125 C 264.347656 83.820312 266.476562 80.386719 267.851562 75.707031 C 269.046875 71.675781 269.253906 68.140625 269.199219 65.667969 C 269.175781 65.667969 269.148438 65.667969 269.125 65.644531 C 272.082031 65.042969 274.417969 64.132812 276 63.40625 C 274.390625 62.886719 273.25 62.160156 272.445312 61.484375 C 267.851562 57.710938 267.957031 51.160156 268.164062 48.742188 C 271.171875 47.050781 273.015625 43.957031 273.714844 42.785156 C 275.457031 39.847656 275.894531 37.011719 276 35.375 C 276.597656 35.558594 277.765625 35.816406 278.855469 35.296875 C 281.164062 34.128906 281.734375 29.914062 279.996094 28.535156 C 279.8125 28.378906 278.957031 27.757812 277.167969 28.171875 C 276.882812 28.691406 276.625 29.238281 276.335938 29.757812 C 276 29.082031 275.664062 28.148438 275.457031 26.976562 C 275.167969 25.3125 275.324219 23.933594 275.507812 23.023438 C 274.882812 22.917969 273.769531 22.660156 272.625 21.90625 C 271.304688 21.019531 270.601562 19.929688 270.289062 19.355469 C 269.953125 19.566406 268.761719 20.320312 267.125 20.136719 C 265.566406 19.980469 264.582031 19.097656 264.296875 18.8125 C 263.855469 19.226562 262.660156 20.214844 260.820312 20.5 C 259.210938 20.761719 257.9375 20.371094 257.367188 20.136719 C 257.109375 20.65625 256.695312 21.359375 255.992188 22.035156 C 254.851562 23.152344 253.578125 23.570312 252.929688 23.726562 C 252.929688 24.53125 252.878906 25.417969 252.75 26.351562 C 252.621094 27.390625 252.4375 28.355469 252.230469 29.1875 C 251.917969 28.742188 251.605469 28.277344 251.269531 27.832031 C 250.335938 27.546875 249.789062 27.703125 249.453125 27.886719 C 247.664062 28.898438 247.714844 33.917969 250.023438 35.167969 C 250.386719 35.375 251.089844 35.636719 252.253906 35.375 C 252.203125 36.882812 252.308594 40.132812 254.253906 43.382812 C 254.746094 44.214844 256.40625 46.765625 259.027344 48.429688 C 259.105469 51.367188 258.847656 59.21875 253.476562 62.835938 Z M 282.488281 117.726562 C 282.410156 119.132812 282.125 120.300781 281.863281 121.160156 C 264.945312 121.132812 260.195312 119.601562 259.546875 117.988281 C 259.445312 117.703125 259.132812 116.609375 258.300781 115.28125 C 257.238281 113.59375 256.433594 113.28125 256.148438 112.1875 C 255.964844 111.460938 255.964844 110.34375 257.054688 108.707031 C 259.3125 109.746094 262.402344 110.914062 266.242188 111.589844 C 270.109375 112.292969 273.484375 112.265625 275.949219 112.058594 C 275.636719 111.617188 275.195312 110.863281 275.039062 109.824219 C 274.832031 108.445312 275.117188 106.726562 275.636719 106.648438 C 276.234375 106.570312 276.546875 108.601562 278.128906 110.8125 C 279.425781 112.632812 281.035156 113.777344 282.304688 114.503906 C 282.460938 115.363281 282.566406 116.453125 282.488281 117.726562 " fill-opacity="1" fill-rule="nonzero"/><path fill="#293241" d="M 260.480469 113.175781 C 260.480469 113.152344 260.480469 113.125 260.507812 113.097656 C 260.507812 113.046875 260.480469 112.996094 260.429688 112.96875 C 258.976562 112.085938 257.730469 111.148438 256.589844 109.875 C 256.433594 109.691406 256.175781 109.953125 256.328125 110.136719 C 257.394531 111.355469 258.792969 112.527344 260.273438 113.253906 C 260.351562 113.28125 260.429688 113.230469 260.480469 113.175781 Z M 269.902344 115.597656 C 266.761719 115.257812 263.648438 115.386719 260.480469 114.839844 L 260.457031 114.839844 C 260.429688 114.816406 260.40625 114.789062 260.378906 114.761719 C 259.210938 114.21875 258.171875 113.671875 257.1875 112.8125 C 257.003906 112.65625 256.746094 112.917969 256.925781 113.074219 C 257.835938 113.957031 258.976562 114.789062 260.222656 115.152344 C 260.273438 115.179688 260.328125 115.152344 260.351562 115.152344 C 260.378906 115.152344 260.378906 115.179688 260.40625 115.179688 C 263.363281 116.089844 266.917969 116.792969 270.007812 116.167969 C 270.34375 116.117188 270.210938 115.621094 269.902344 115.597656 Z M 269.410156 117.753906 C 267.175781 117.753906 264.917969 117.9375 262.660156 117.78125 C 262.636719 117.753906 262.609375 117.726562 262.558594 117.703125 C 262.066406 117.492188 261.496094 117.46875 261 117.3125 C 260.429688 117.128906 259.859375 116.894531 259.3125 116.660156 C 259.160156 116.582031 259.027344 116.816406 259.183594 116.894531 C 260.015625 117.390625 261.105469 117.960938 262.117188 118.089844 C 262.144531 118.144531 262.195312 118.195312 262.246094 118.195312 C 264.632812 118.535156 266.96875 118.898438 269.410156 118.613281 C 269.953125 118.558594 269.980469 117.753906 269.410156 117.753906 Z M 260.480469 113.175781 C 260.507812 113.152344 260.507812 113.125 260.507812 113.097656 C 260.535156 113.046875 260.613281 112.996094 260.6875 113.019531 C 263.671875 113.566406 266.710938 113.566406 269.695312 114.0625 C 270.082031 114.113281 269.929688 114.660156 269.617188 114.6875 C 266.65625 114.972656 263.441406 114.140625 260.613281 113.359375 C 260.507812 113.332031 260.480469 113.253906 260.480469 113.175781 " fill-opacity="1" fill-rule="nonzero"/><path fill="#ffffff" d="M 258.433594 32.460938 C 259.960938 32.539062 260.949219 31.605469 261.128906 31.449219 C 260.84375 30.304688 259.859375 29.5 258.71875 29.445312 C 257.496094 29.394531 256.355469 30.226562 256.042969 31.449219 C 256.277344 31.628906 257.132812 32.386719 258.433594 32.460938 Z M 270.523438 32.671875 C 268.992188 32.75 268.007812 31.8125 267.824219 31.65625 C 268.113281 30.511719 269.097656 29.707031 270.238281 29.652344 C 271.457031 29.601562 272.601562 30.433594 272.914062 31.65625 C 272.679688 31.839844 271.824219 32.617188 270.523438 32.671875 " fill-opacity="1" fill-rule="nonzero"/><path fill="#293241" d="M 259.003906 22.554688 C 262.324219 22.867188 265.074219 19.695312 265.699219 16.652344 C 265.800781 16.105469 265.023438 15.691406 264.738281 16.238281 C 264.089844 17.433594 263.726562 18.734375 262.84375 19.800781 C 261.882812 20.996094 260.535156 21.777344 258.976562 21.828125 C 258.535156 21.851562 258.5625 22.503906 259.003906 22.554688 Z M 269.175781 48.089844 C 266.140625 49.496094 261.625 50.40625 258.71875 48.222656 C 258.511719 48.066406 258.25 48.402344 258.457031 48.558594 C 261.3125 50.847656 266.734375 51.03125 269.539062 48.558594 C 269.796875 48.324219 269.460938 47.960938 269.175781 48.089844 Z M 277.996094 30.175781 C 278.335938 30.070312 278.648438 30.097656 278.878906 30.355469 C 279.113281 30.589844 279.113281 30.902344 279.320312 31.136719 C 279.476562 31.292969 279.789062 31.265625 279.867188 31.058594 C 280.101562 30.5625 279.683594 30.019531 279.269531 29.757812 C 278.855469 29.472656 278.285156 29.421875 277.789062 29.578125 C 277.453125 29.679688 277.609375 30.304688 277.996094 30.175781 Z M 249.609375 30.667969 C 249.816406 30.460938 249.789062 30.121094 249.921875 29.863281 C 250.023438 29.601562 250.308594 29.5 250.542969 29.679688 C 250.726562 29.835938 250.957031 29.523438 250.804688 29.34375 C 250.492188 29.03125 250.050781 29.054688 249.6875 29.265625 C 249.296875 29.472656 248.855469 30.070312 249.011719 30.511719 C 249.089844 30.773438 249.402344 30.875 249.609375 30.667969 Z M 264.425781 44.449219 C 264.167969 44.527344 263.960938 44.683594 263.699219 44.761719 C 263.59375 44.789062 263.464844 44.8125 263.335938 44.839844 C 263.234375 44.867188 263.101562 44.96875 263 44.96875 C 262.972656 44.96875 262.972656 44.996094 263 44.996094 C 263.128906 45.101562 263.15625 45.230469 263.335938 45.335938 C 263.492188 45.414062 263.671875 45.4375 263.855469 45.4375 C 264.21875 45.4375 264.632812 45.308594 264.867188 44.996094 C 265.023438 44.710938 264.710938 44.371094 264.425781 44.449219 Z M 268.421875 41.070312 C 268.8125 40.523438 267.929688 40.054688 267.539062 40.550781 C 266.007812 42.550781 262.972656 44.398438 260.949219 41.851562 C 260.742188 41.589844 260.273438 41.929688 260.480469 42.214844 C 262.714844 45.28125 266.605469 43.671875 268.421875 41.070312 Z M 263.050781 37.144531 C 262.894531 38.339844 263.492188 39.222656 264.6875 39.351562 C 264.894531 39.378906 264.917969 39.042969 264.738281 38.988281 C 262.507812 38.261719 264.789062 35.582031 264.996094 34.28125 C 265.152344 33.296875 265.257812 32.203125 265.023438 31.214844 C 264.917969 30.773438 264.324219 30.851562 264.191406 31.214844 C 263.882812 32.125 264.113281 32.984375 264.0625 33.917969 C 263.984375 35.089844 263.179688 35.972656 263.050781 37.144531 Z M 254.28125 28.535156 C 255.992188 27.78125 259.183594 27.390625 260.765625 28.71875 C 261.078125 28.976562 261.496094 28.5625 261.207031 28.277344 C 259.3125 26.480469 255.914062 26.195312 253.683594 27.523438 C 253.035156 27.910156 253.605469 28.820312 254.28125 28.535156 Z M 274.78125 27.523438 C 272.546875 26.167969 269.148438 26.457031 267.253906 28.277344 C 266.96875 28.5625 267.382812 28.976562 267.695312 28.71875 C 269.277344 27.390625 272.472656 27.808594 274.183594 28.535156 C 274.859375 28.820312 275.429688 27.910156 274.78125 27.523438 Z M 260.921875 31.398438 C 261.054688 31.605469 261.417969 31.472656 261.3125 31.242188 C 260.898438 30.199219 259.886719 29.289062 258.742188 29.132812 C 257.394531 28.925781 256.355469 29.914062 255.734375 30.980469 C 255.605469 31.214844 255.914062 31.449219 256.097656 31.265625 C 256.484375 30.902344 256.875 30.511719 257.289062 30.199219 C 257.082031 30.953125 257.289062 31.839844 258.09375 32.175781 C 259.183594 32.617188 259.988281 31.449219 259.808594 30.460938 C 259.78125 30.332031 259.730469 30.199219 259.679688 30.070312 C 260.195312 30.355469 260.585938 30.851562 260.921875 31.398438 Z M 270.1875 29.34375 C 269.046875 29.523438 268.035156 30.433594 267.617188 31.449219 C 267.515625 31.683594 267.878906 31.8125 268.007812 31.605469 C 268.34375 31.03125 268.734375 30.5625 269.253906 30.277344 C 269.199219 30.382812 269.148438 30.511719 269.125 30.667969 C 268.941406 31.65625 269.746094 32.851562 270.835938 32.386719 C 271.613281 32.074219 271.847656 31.164062 271.640625 30.410156 C 272.054688 30.71875 272.445312 31.109375 272.835938 31.472656 C 273.042969 31.65625 273.351562 31.421875 273.195312 31.1875 C 272.601562 30.121094 271.535156 29.132812 270.1875 29.34375 Z M 298.550781 121.886719 C 293.566406 126.4375 287.339844 129.066406 280.617188 129.378906 C 282.511719 124.75 283.292969 119.546875 282.359375 114.609375 C 282.304688 114.320312 281.839844 114.398438 281.839844 114.6875 C 281.917969 119.679688 281.320312 124.359375 279.554688 129.011719 C 277.453125 127.191406 276.3125 124.074219 275.921875 121.445312 C 275.894531 121.1875 275.429688 121.238281 275.457031 121.5 C 275.84375 124.4375 276.625 128.542969 279.398438 130.234375 C 279.476562 130.417969 279.632812 130.546875 279.890625 130.546875 C 287.003906 130.289062 293.851562 127.324219 298.863281 122.253906 C 299.121094 121.992188 298.785156 121.679688 298.550781 121.886719 Z M 263.078125 120.875 C 258.847656 121.863281 254.667969 122.980469 250.414062 123.863281 C 246.625 124.644531 242.1875 126.074219 238.605469 123.96875 C 238.425781 123.863281 238.191406 124.125 238.371094 124.28125 C 241.125 126.542969 245.066406 125.683594 248.285156 125.140625 C 253.34375 124.28125 258.433594 123.320312 263.363281 121.835938 C 263.933594 121.652344 263.699219 120.742188 263.078125 120.875 Z M 288.613281 91.59375 C 288.765625 89.617188 288.507812 87.5625 288.480469 85.5625 C 288.457031 83.558594 288.480469 81.558594 288.636719 79.554688 C 288.664062 79.214844 288.171875 79.242188 288.144531 79.554688 C 287.625 83.429688 286.925781 87.847656 287.78125 91.699219 C 287.859375 92.21875 288.585938 92.0625 288.613281 91.59375 Z M 242.316406 81.140625 C 242.238281 80.726562 242.863281 80.542969 242.941406 80.957031 C 243.976562 85.328125 244.523438 89.746094 244.625 94.246094 C 244.625 94.84375 243.691406 94.84375 243.691406 94.246094 C 243.667969 89.851562 243.199219 85.457031 242.316406 81.140625 " fill-opacity="1" fill-rule="nonzero"/><path fill="#98c1d9" d="M 269.175781 66.8125 C 267.878906 66.941406 266.554688 66.941406 265.335938 66.996094 C 262.636719 67.046875 259.910156 67.023438 257.238281 66.554688 C 256.902344 66.5 257.03125 66.03125 257.316406 65.980469 C 259.960938 65.667969 262.636719 65.800781 265.335938 65.695312 C 267.980469 65.589844 270.628906 65.070312 273.25 65.019531 C 273.792969 65.019531 273.820312 65.746094 273.378906 65.929688 C 272.472656 66.265625 271.511719 66.5 270.523438 66.65625 M 270.523438 66.65625 C 270.082031 66.734375 269.640625 66.785156 269.175781 66.8125 " fill-opacity="1" fill-rule="nonzero"/><path fill="#98c1d9" d="M 278.386719 102.671875 C 278.101562 102.75 278.152344 103.21875 278.464844 103.167969 C 279.453125 103.035156 280.4375 102.984375 281.425781 102.957031 C 282.304688 102.957031 283.242188 103.167969 284.070312 102.90625 C 284.460938 102.777344 284.40625 102.308594 284.070312 102.179688 C 282.539062 101.527344 279.96875 102.308594 278.386719 102.671875 Z M 288.898438 100.253906 C 289.363281 100.203125 289.570312 99.449219 289.027344 99.34375 C 286.847656 98.925781 284.433594 99.292969 282.226562 99.578125 C 279.632812 99.914062 277.089844 100.515625 274.546875 101.214844 C 274.261719 101.292969 274.390625 101.710938 274.675781 101.632812 C 277.089844 101.035156 279.554688 100.667969 282.019531 100.488281 C 284.304688 100.332031 286.664062 100.539062 288.898438 100.253906 Z M 262.453125 109.5625 C 262.609375 107.351562 262.402344 105.066406 262.273438 102.855469 C 262.246094 102.542969 261.804688 102.542969 261.777344 102.855469 C 261.648438 105.066406 261.417969 107.351562 261.597656 109.5625 C 261.625 110.109375 262.402344 110.109375 262.453125 109.5625 " fill-opacity="1" fill-rule="nonzero"/></svg>