<svg xmlns="http://www.w3.org/2000/svg" xmlns:xlink="http://www.w3.org/1999/xlink" width="300" zoomAndPan="magnify" viewBox="0 0 224.87999 225" height="300" preserveAspectRatio="xMidYMid meet" version="1.0"><defs><g/><clipPath id="b3e6c414a2"><path d="M 0 0.0585938 L 224.761719 0.0585938 L 224.761719 224.9375 L 0 224.9375 Z M 0 0.0585938 " clip-rule="nonzero"/></clipPath><clipPath id="c2f5d4303a"><path d="M 1 1 L 74.667969 1 L 74.667969 30 L 1 30 Z M 1 1 " clip-rule="nonzero"/></clipPath><clipPath id="012e3ad636"><rect x="0" width="75" y="0" height="31"/></clipPath><clipPath id="97ad82a7ab"><path d="M 42 0.257812 L 111 0.257812 L 111 160 L 42 160 Z M 42 0.257812 " clip-rule="nonzero"/></clipPath><clipPath id="c6d2ab6ea3"><rect x="0" width="69" y="0" height="160"/></clipPath><clipPath id="511d032a9b"><path d="M 0.3125 0.5 L 181.707031 0.5 L 181.707031 210.039062 L 0.3125 210.039062 Z M 0.3125 0.5 " clip-rule="nonzero"/></clipPath><clipPath id="d0082e4b52"><rect x="0" width="152" y="0" height="28"/></clipPath><clipPath id="1372da0017"><rect x="0" width="183" y="0" height="211"/></clipPath></defs><g clip-path="url(#b3e6c414a2)"><path fill="#ffffff" d="M 0 0.0585938 L 224.878906 0.0585938 L 224.878906 224.941406 L 0 224.941406 Z M 0 0.0585938 " fill-opacity="1" fill-rule="nonzero"/><path fill="#ffffff" d="M 0 0.0585938 L 224.878906 0.0585938 L 224.878906 224.941406 L 0 224.941406 Z M 0 0.0585938 " fill-opacity="1" fill-rule="nonzero"/></g><g transform="matrix(1, 0, 0, 1, 23, 7)"><g clip-path="url(#1372da0017)"><g transform="matrix(1, 0, 0, 1, 76, 71)"><g clip-path="url(#012e3ad636)"><g clip-path="url(#c2f5d4303a)"><path fill="#29b554" d="M 1.503906 1.277344 L 74.457031 1.277344 L 74.457031 29.539062 L 1.503906 29.539062 L 1.503906 1.277344 " fill-opacity="1" fill-rule="nonzero"/></g><g fill="#ffffff" fill-opacity="1"><g transform="translate(8.928643, 21.659769)"><g><path d="M 11.40625 -8.921875 C 11.40625 -7.710938 11.007812 -6.75 10.21875 -6.03125 C 9.425781 -5.320312 8.351562 -4.96875 7 -4.96875 L 3.25 -4.96875 L 3.25 0 L 1.515625 0 L 1.515625 -12.765625 L 6.890625 -12.765625 C 8.328125 -12.765625 9.4375 -12.429688 10.21875 -11.765625 C 11.007812 -11.097656 11.40625 -10.148438 11.40625 -8.921875 Z M 9.65625 -8.90625 C 9.65625 -10.5625 8.664062 -11.390625 6.6875 -11.390625 L 3.25 -11.390625 L 3.25 -6.34375 L 6.765625 -6.34375 C 8.691406 -6.34375 9.65625 -7.195312 9.65625 -8.90625 Z M 9.65625 -8.90625 "/></g></g></g><g fill="#ffffff" fill-opacity="1"><g transform="translate(23.709954, 21.659769)"><g><path d="M 1.515625 0 L 1.515625 -12.765625 L 3.25 -12.765625 L 3.25 -1.40625 L 9.703125 -1.40625 L 9.703125 0 Z M 1.515625 0 "/></g></g></g><g fill="#ffffff" fill-opacity="1"><g transform="translate(36.435927, 21.659769)"><g><path d="M 6.625 0.1875 C 5.582031 0.1875 4.671875 0 3.890625 -0.375 C 3.109375 -0.757812 2.503906 -1.316406 2.078125 -2.046875 C 1.648438 -2.773438 1.4375 -3.640625 1.4375 -4.640625 L 1.4375 -12.765625 L 3.15625 -12.765625 L 3.15625 -4.78125 C 3.15625 -3.613281 3.453125 -2.726562 4.046875 -2.125 C 4.640625 -1.519531 5.492188 -1.21875 6.609375 -1.21875 C 7.765625 -1.21875 8.660156 -1.53125 9.296875 -2.15625 C 9.929688 -2.78125 10.25 -3.695312 10.25 -4.90625 L 10.25 -12.765625 L 11.96875 -12.765625 L 11.96875 -4.796875 C 11.96875 -3.765625 11.75 -2.875 11.3125 -2.125 C 10.875 -1.375 10.253906 -0.800781 9.453125 -0.40625 C 8.648438 -0.0078125 7.707031 0.1875 6.625 0.1875 Z M 6.625 0.1875 "/></g></g></g><g fill="#ffffff" fill-opacity="1"><g transform="translate(52.240392, 21.659769)"><g><path d="M 11.53125 -3.53125 C 11.53125 -2.351562 11.066406 -1.4375 10.140625 -0.78125 C 9.222656 -0.132812 7.925781 0.1875 6.25 0.1875 C 3.144531 0.1875 1.34375 -0.894531 0.84375 -3.0625 L 2.515625 -3.40625 C 2.710938 -2.632812 3.125 -2.066406 3.75 -1.703125 C 4.375 -1.347656 5.226562 -1.171875 6.3125 -1.171875 C 7.4375 -1.171875 8.300781 -1.363281 8.90625 -1.75 C 9.507812 -2.132812 9.8125 -2.695312 9.8125 -3.4375 C 9.8125 -3.851562 9.71875 -4.191406 9.53125 -4.453125 C 9.34375 -4.710938 9.078125 -4.925781 8.734375 -5.09375 C 8.390625 -5.257812 7.976562 -5.398438 7.5 -5.515625 C 7.019531 -5.628906 6.488281 -5.753906 5.90625 -5.890625 C 4.894531 -6.117188 4.128906 -6.34375 3.609375 -6.5625 C 3.085938 -6.78125 2.675781 -7.023438 2.375 -7.296875 C 2.070312 -7.578125 1.835938 -7.898438 1.671875 -8.265625 C 1.515625 -8.640625 1.4375 -9.066406 1.4375 -9.546875 C 1.4375 -10.640625 1.851562 -11.484375 2.6875 -12.078125 C 3.53125 -12.671875 4.734375 -12.96875 6.296875 -12.96875 C 7.742188 -12.96875 8.847656 -12.742188 9.609375 -12.296875 C 10.378906 -11.847656 10.921875 -11.09375 11.234375 -10.03125 L 9.53125 -9.71875 C 9.34375 -10.394531 8.984375 -10.882812 8.453125 -11.1875 C 7.929688 -11.5 7.203125 -11.65625 6.265625 -11.65625 C 5.242188 -11.65625 4.460938 -11.484375 3.921875 -11.140625 C 3.390625 -10.804688 3.125 -10.304688 3.125 -9.640625 C 3.125 -9.242188 3.226562 -8.914062 3.4375 -8.65625 C 3.644531 -8.40625 3.945312 -8.1875 4.34375 -8 C 4.738281 -7.820312 5.519531 -7.601562 6.6875 -7.34375 C 7.082031 -7.257812 7.472656 -7.171875 7.859375 -7.078125 C 8.253906 -6.984375 8.628906 -6.867188 8.984375 -6.734375 C 9.335938 -6.609375 9.671875 -6.457031 9.984375 -6.28125 C 10.296875 -6.101562 10.566406 -5.882812 10.796875 -5.625 C 11.023438 -5.375 11.203125 -5.078125 11.328125 -4.734375 C 11.460938 -4.390625 11.53125 -3.988281 11.53125 -3.53125 Z M 11.53125 -3.53125 "/></g></g></g></g></g><g clip-path="url(#97ad82a7ab)"><g transform="matrix(1, 0, 0, 1, 42, -0.000000000000002665)"><g clip-path="url(#c6d2ab6ea3)"><g fill="#004aad" fill-opacity="1"><g transform="translate(1.72843, 127.399252)"><g><path d="M 28.09375 0 L 26.890625 -14.171875 L 16.828125 -14.171875 L 15.375 0 L 0 0 L 12.859375 -88.25 L 32.46875 -88.25 L 45.1875 0 Z M 22.53125 -62.28125 L 18.6875 -27.953125 L 25.4375 -27.953125 Z M 22.53125 -62.28125 "/></g></g></g><g fill="#18375d" fill-opacity="1"><g transform="translate(43.210922, 127.399252)"><g/></g></g><g fill="#18375d" fill-opacity="1"><g transform="translate(55.929597, 127.399252)"><g/></g></g></g></g></g><g clip-path="url(#511d032a9b)"><path fill="#29b554" d="M 181.949219 74.746094 L 177.851562 74.746094 L 177.851562 55.433594 L 91.132812 5.328125 L 4.414062 55.433594 L 4.414062 74.746094 L 0.3125 74.746094 L 0.3125 53.054688 L 91.132812 0.613281 L 181.949219 53.054688 Z M 181.949219 157.9375 L 181.949219 136.246094 L 177.851562 136.246094 L 177.851562 155.558594 L 91.132812 205.621094 L 4.414062 155.558594 L 4.414062 136.246094 L 0.3125 136.246094 L 0.3125 157.9375 L 91.132812 210.378906 Z M 181.949219 157.9375 " fill-opacity="1" fill-rule="nonzero"/></g><g transform="matrix(1, 0, 0, 1, 16, 131)"><g clip-path="url(#d0082e4b52)"><g fill="#004aad" fill-opacity="1"><g transform="translate(1.011558, 21.996917)"><g><path d="M 13.484375 0 L 10.546875 0 L 11.421875 -7.140625 L 4.59375 -7.140625 L 3.71875 0 L 0.78125 0 L 2.78125 -16.25 L 5.71875 -16.25 L 4.84375 -9.203125 L 11.6875 -9.203125 L 12.5625 -16.25 L 15.484375 -16.25 Z M 13.484375 0 "/></g></g></g><g fill="#004aad" fill-opacity="1"><g transform="translate(16.647299, 21.996917)"><g><path d="M 16.25 -9.21875 C 16.25 -8.3125 16.148438 -7.453125 15.953125 -6.640625 C 15.753906 -5.828125 15.46875 -5.070312 15.09375 -4.375 C 14.71875 -3.6875 14.269531 -3.0625 13.75 -2.5 C 13.226562 -1.9375 12.644531 -1.453125 12 -1.046875 C 11.351562 -0.648438 10.648438 -0.34375 9.890625 -0.125 C 9.140625 0.0820312 8.347656 0.1875 7.515625 0.1875 C 6.484375 0.1875 5.554688 0.00390625 4.734375 -0.359375 C 3.910156 -0.734375 3.207031 -1.242188 2.625 -1.890625 C 2.039062 -2.535156 1.59375 -3.296875 1.28125 -4.171875 C 0.976562 -5.046875 0.828125 -5.992188 0.828125 -7.015625 C 0.828125 -7.921875 0.925781 -8.78125 1.125 -9.59375 C 1.320312 -10.40625 1.601562 -11.15625 1.96875 -11.84375 C 2.34375 -12.539062 2.789062 -13.171875 3.3125 -13.734375 C 3.832031 -14.296875 4.414062 -14.773438 5.0625 -15.171875 C 5.71875 -15.578125 6.421875 -15.882812 7.171875 -16.09375 C 7.929688 -16.3125 8.734375 -16.421875 9.578125 -16.421875 C 10.609375 -16.421875 11.535156 -16.238281 12.359375 -15.875 C 13.179688 -15.507812 13.878906 -15.003906 14.453125 -14.359375 C 15.035156 -13.710938 15.476562 -12.945312 15.78125 -12.0625 C 16.09375 -11.1875 16.25 -10.238281 16.25 -9.21875 Z M 13.25 -9.140625 C 13.25 -9.878906 13.15625 -10.546875 12.96875 -11.140625 C 12.789062 -11.742188 12.523438 -12.257812 12.171875 -12.6875 C 11.828125 -13.113281 11.40625 -13.441406 10.90625 -13.671875 C 10.40625 -13.898438 9.84375 -14.015625 9.21875 -14.015625 C 8.40625 -14.015625 7.664062 -13.847656 7 -13.515625 C 6.34375 -13.191406 5.773438 -12.726562 5.296875 -12.125 C 4.828125 -11.519531 4.460938 -10.789062 4.203125 -9.9375 C 3.941406 -9.082031 3.8125 -8.132812 3.8125 -7.09375 C 3.8125 -6.351562 3.898438 -5.679688 4.078125 -5.078125 C 4.265625 -4.484375 4.53125 -3.972656 4.875 -3.546875 C 5.21875 -3.128906 5.640625 -2.804688 6.140625 -2.578125 C 6.640625 -2.347656 7.207031 -2.234375 7.84375 -2.234375 C 8.65625 -2.234375 9.394531 -2.394531 10.0625 -2.71875 C 10.726562 -3.050781 11.296875 -3.515625 11.765625 -4.109375 C 12.242188 -4.710938 12.609375 -5.441406 12.859375 -6.296875 C 13.117188 -7.148438 13.25 -8.097656 13.25 -9.140625 Z M 13.25 -9.140625 "/></g></g></g><g fill="#004aad" fill-opacity="1"><g transform="translate(33.091783, 21.996917)"><g><path d="M 9.265625 -6.5 C 9.335938 -6.300781 9.398438 -6.097656 9.453125 -5.890625 C 9.503906 -5.691406 9.554688 -5.488281 9.609375 -5.28125 C 9.691406 -5.488281 9.785156 -5.691406 9.890625 -5.890625 C 9.992188 -6.097656 10.109375 -6.300781 10.234375 -6.5 L 15.875 -15.765625 C 15.9375 -15.878906 16.003906 -15.96875 16.078125 -16.03125 C 16.148438 -16.09375 16.222656 -16.140625 16.296875 -16.171875 C 16.378906 -16.203125 16.46875 -16.222656 16.5625 -16.234375 C 16.664062 -16.242188 16.78125 -16.25 16.90625 -16.25 L 19.125 -16.25 L 17.125 0 L 14.5625 0 L 15.859375 -10.578125 C 15.878906 -10.773438 15.910156 -10.988281 15.953125 -11.21875 C 16.003906 -11.457031 16.054688 -11.695312 16.109375 -11.9375 L 10.53125 -2.65625 C 10.394531 -2.445312 10.234375 -2.285156 10.046875 -2.171875 C 9.859375 -2.066406 9.648438 -2.015625 9.421875 -2.015625 L 9.015625 -2.015625 C 8.796875 -2.015625 8.597656 -2.066406 8.421875 -2.171875 C 8.253906 -2.285156 8.132812 -2.445312 8.0625 -2.65625 L 4.71875 -11.890625 C 4.707031 -11.660156 4.695312 -11.4375 4.6875 -11.21875 C 4.675781 -11 4.660156 -10.800781 4.640625 -10.625 L 3.359375 0 L 0.78125 0 L 2.78125 -16.25 L 4.984375 -16.25 C 5.109375 -16.25 5.21875 -16.242188 5.3125 -16.234375 C 5.40625 -16.222656 5.488281 -16.203125 5.5625 -16.171875 C 5.644531 -16.140625 5.710938 -16.09375 5.765625 -16.03125 C 5.816406 -15.96875 5.863281 -15.878906 5.90625 -15.765625 Z M 9.265625 -6.5 "/></g></g></g><g fill="#004aad" fill-opacity="1"><g transform="translate(52.355644, 21.996917)"><g><path d="M 12.25 -16.25 L 11.96875 -13.921875 L 5.421875 -13.921875 L 4.859375 -9.296875 L 10 -9.296875 L 9.71875 -7.0625 L 4.578125 -7.0625 L 4 -2.328125 L 10.5625 -2.328125 L 10.265625 0 L 0.78125 0 L 2.78125 -16.25 Z M 12.25 -16.25 "/></g></g></g><g fill="#004aad" fill-opacity="1"><g transform="translate(64.161069, 21.996917)"><g/></g></g><g fill="#004aad" fill-opacity="1"><g transform="translate(68.49684, 21.996917)"><g><path d="M 13.390625 -16.25 L 13.09375 -13.859375 L 8.640625 -13.859375 L 6.9375 0 L 4.03125 0 L 5.734375 -13.859375 L 1.265625 -13.859375 L 1.5625 -16.25 Z M 13.390625 -16.25 "/></g></g></g><g fill="#004aad" fill-opacity="1"><g transform="translate(80.807735, 21.996917)"><g><path d="M 7.140625 -2.34375 C 7.660156 -2.34375 8.140625 -2.441406 8.578125 -2.640625 C 9.015625 -2.835938 9.394531 -3.113281 9.71875 -3.46875 C 10.050781 -3.832031 10.320312 -4.269531 10.53125 -4.78125 C 10.75 -5.289062 10.894531 -5.859375 10.96875 -6.484375 L 12.171875 -16.25 L 15.09375 -16.25 L 13.890625 -6.484375 C 13.773438 -5.523438 13.519531 -4.632812 13.125 -3.8125 C 12.738281 -3 12.238281 -2.296875 11.625 -1.703125 C 11.019531 -1.109375 10.3125 -0.644531 9.5 -0.3125 C 8.6875 0.0195312 7.796875 0.1875 6.828125 0.1875 C 5.953125 0.1875 5.171875 0.0507812 4.484375 -0.21875 C 3.804688 -0.5 3.234375 -0.882812 2.765625 -1.375 C 2.296875 -1.875 1.941406 -2.460938 1.703125 -3.140625 C 1.460938 -3.828125 1.34375 -4.585938 1.34375 -5.421875 C 1.34375 -5.753906 1.363281 -6.109375 1.40625 -6.484375 L 2.578125 -16.25 L 5.5 -16.25 L 4.296875 -6.5 C 4.285156 -6.351562 4.273438 -6.210938 4.265625 -6.078125 C 4.253906 -5.941406 4.25 -5.8125 4.25 -5.6875 C 4.25 -5.175781 4.3125 -4.710938 4.4375 -4.296875 C 4.5625 -3.890625 4.742188 -3.539062 4.984375 -3.25 C 5.234375 -2.957031 5.535156 -2.734375 5.890625 -2.578125 C 6.253906 -2.421875 6.671875 -2.34375 7.140625 -2.34375 Z M 7.140625 -2.34375 "/></g></g></g><g fill="#004aad" fill-opacity="1"><g transform="translate(95.836916, 21.996917)"><g><path d="M 13.390625 -16.25 L 13.09375 -13.859375 L 8.640625 -13.859375 L 6.9375 0 L 4.03125 0 L 5.734375 -13.859375 L 1.265625 -13.859375 L 1.5625 -16.25 Z M 13.390625 -16.25 "/></g></g></g><g fill="#004aad" fill-opacity="1"><g transform="translate(108.147811, 21.996917)"><g><path d="M 16.25 -9.21875 C 16.25 -8.3125 16.148438 -7.453125 15.953125 -6.640625 C 15.753906 -5.828125 15.46875 -5.070312 15.09375 -4.375 C 14.71875 -3.6875 14.269531 -3.0625 13.75 -2.5 C 13.226562 -1.9375 12.644531 -1.453125 12 -1.046875 C 11.351562 -0.648438 10.648438 -0.34375 9.890625 -0.125 C 9.140625 0.0820312 8.347656 0.1875 7.515625 0.1875 C 6.484375 0.1875 5.554688 0.00390625 4.734375 -0.359375 C 3.910156 -0.734375 3.207031 -1.242188 2.625 -1.890625 C 2.039062 -2.535156 1.59375 -3.296875 1.28125 -4.171875 C 0.976562 -5.046875 0.828125 -5.992188 0.828125 -7.015625 C 0.828125 -7.921875 0.925781 -8.78125 1.125 -9.59375 C 1.320312 -10.40625 1.601562 -11.15625 1.96875 -11.84375 C 2.34375 -12.539062 2.789062 -13.171875 3.3125 -13.734375 C 3.832031 -14.296875 4.414062 -14.773438 5.0625 -15.171875 C 5.71875 -15.578125 6.421875 -15.882812 7.171875 -16.09375 C 7.929688 -16.3125 8.734375 -16.421875 9.578125 -16.421875 C 10.609375 -16.421875 11.535156 -16.238281 12.359375 -15.875 C 13.179688 -15.507812 13.878906 -15.003906 14.453125 -14.359375 C 15.035156 -13.710938 15.476562 -12.945312 15.78125 -12.0625 C 16.09375 -11.1875 16.25 -10.238281 16.25 -9.21875 Z M 13.25 -9.140625 C 13.25 -9.878906 13.15625 -10.546875 12.96875 -11.140625 C 12.789062 -11.742188 12.523438 -12.257812 12.171875 -12.6875 C 11.828125 -13.113281 11.40625 -13.441406 10.90625 -13.671875 C 10.40625 -13.898438 9.84375 -14.015625 9.21875 -14.015625 C 8.40625 -14.015625 7.664062 -13.847656 7 -13.515625 C 6.34375 -13.191406 5.773438 -12.726562 5.296875 -12.125 C 4.828125 -11.519531 4.460938 -10.789062 4.203125 -9.9375 C 3.941406 -9.082031 3.8125 -8.132812 3.8125 -7.09375 C 3.8125 -6.351562 3.898438 -5.679688 4.078125 -5.078125 C 4.265625 -4.484375 4.53125 -3.972656 4.875 -3.546875 C 5.21875 -3.128906 5.640625 -2.804688 6.140625 -2.578125 C 6.640625 -2.347656 7.207031 -2.234375 7.84375 -2.234375 C 8.65625 -2.234375 9.394531 -2.394531 10.0625 -2.71875 C 10.726562 -3.050781 11.296875 -3.515625 11.765625 -4.109375 C 12.242188 -4.710938 12.609375 -5.441406 12.859375 -6.296875 C 13.117188 -7.148438 13.25 -8.097656 13.25 -9.140625 Z M 13.25 -9.140625 "/></g></g></g><g fill="#004aad" fill-opacity="1"><g transform="translate(124.592295, 21.996917)"><g><path d="M 4.546875 -6.40625 L 3.765625 0 L 0.859375 0 L 2.859375 -16.25 L 7.46875 -16.25 C 8.40625 -16.25 9.207031 -16.148438 9.875 -15.953125 C 10.539062 -15.753906 11.085938 -15.472656 11.515625 -15.109375 C 11.941406 -14.753906 12.253906 -14.328125 12.453125 -13.828125 C 12.660156 -13.335938 12.765625 -12.800781 12.765625 -12.21875 C 12.765625 -11.582031 12.675781 -10.988281 12.5 -10.4375 C 12.320312 -9.882812 12.066406 -9.382812 11.734375 -8.9375 C 11.410156 -8.488281 11.007812 -8.09375 10.53125 -7.75 C 10.050781 -7.414062 9.503906 -7.15625 8.890625 -6.96875 C 9.066406 -6.863281 9.222656 -6.738281 9.359375 -6.59375 C 9.503906 -6.445312 9.628906 -6.269531 9.734375 -6.0625 L 12.640625 0 L 10.015625 0 C 9.773438 0 9.566406 -0.046875 9.390625 -0.140625 C 9.222656 -0.242188 9.097656 -0.390625 9.015625 -0.578125 L 6.640625 -5.859375 C 6.546875 -6.046875 6.429688 -6.179688 6.296875 -6.265625 C 6.171875 -6.359375 5.972656 -6.40625 5.703125 -6.40625 Z M 5.5 -14 L 4.8125 -8.484375 L 6.5 -8.484375 C 7.082031 -8.484375 7.582031 -8.566406 8 -8.734375 C 8.425781 -8.898438 8.773438 -9.128906 9.046875 -9.421875 C 9.316406 -9.722656 9.519531 -10.070312 9.65625 -10.46875 C 9.789062 -10.863281 9.859375 -11.289062 9.859375 -11.75 C 9.859375 -12.457031 9.640625 -13.007812 9.203125 -13.40625 C 8.773438 -13.800781 8.109375 -14 7.203125 -14 Z M 5.5 -14 "/></g></g></g><g fill="#004aad" fill-opacity="1"><g transform="translate(138.172474, 21.996917)"><g><path d="M 10.5 -13.328125 C 10.394531 -13.171875 10.289062 -13.054688 10.1875 -12.984375 C 10.082031 -12.921875 9.957031 -12.890625 9.8125 -12.890625 C 9.65625 -12.890625 9.5 -12.945312 9.34375 -13.0625 C 9.1875 -13.1875 9 -13.320312 8.78125 -13.46875 C 8.5625 -13.613281 8.304688 -13.742188 8.015625 -13.859375 C 7.722656 -13.984375 7.363281 -14.046875 6.9375 -14.046875 C 6.53125 -14.046875 6.164062 -13.984375 5.84375 -13.859375 C 5.53125 -13.742188 5.265625 -13.578125 5.046875 -13.359375 C 4.835938 -13.148438 4.679688 -12.90625 4.578125 -12.625 C 4.472656 -12.34375 4.421875 -12.035156 4.421875 -11.703125 C 4.421875 -11.359375 4.503906 -11.070312 4.671875 -10.84375 C 4.847656 -10.613281 5.078125 -10.410156 5.359375 -10.234375 C 5.648438 -10.066406 5.976562 -9.914062 6.34375 -9.78125 C 6.707031 -9.644531 7.078125 -9.503906 7.453125 -9.359375 C 7.835938 -9.210938 8.210938 -9.039062 8.578125 -8.84375 C 8.953125 -8.644531 9.28125 -8.40625 9.5625 -8.125 C 9.84375 -7.84375 10.070312 -7.5 10.25 -7.09375 C 10.425781 -6.695312 10.515625 -6.210938 10.515625 -5.640625 C 10.515625 -4.847656 10.375 -4.097656 10.09375 -3.390625 C 9.820312 -2.691406 9.429688 -2.078125 8.921875 -1.546875 C 8.410156 -1.015625 7.789062 -0.59375 7.0625 -0.28125 C 6.332031 0.03125 5.507812 0.1875 4.59375 0.1875 C 4.125 0.1875 3.660156 0.132812 3.203125 0.03125 C 2.742188 -0.0703125 2.3125 -0.21875 1.90625 -0.40625 C 1.5 -0.59375 1.125 -0.816406 0.78125 -1.078125 C 0.4375 -1.335938 0.140625 -1.628906 -0.109375 -1.953125 L 0.921875 -3.34375 C 1.003906 -3.445312 1.109375 -3.53125 1.234375 -3.59375 C 1.359375 -3.664062 1.488281 -3.703125 1.625 -3.703125 C 1.738281 -3.703125 1.851562 -3.664062 1.96875 -3.59375 C 2.082031 -3.519531 2.207031 -3.425781 2.34375 -3.3125 C 2.488281 -3.207031 2.640625 -3.085938 2.796875 -2.953125 C 2.960938 -2.828125 3.148438 -2.707031 3.359375 -2.59375 C 3.566406 -2.488281 3.800781 -2.398438 4.0625 -2.328125 C 4.320312 -2.253906 4.628906 -2.21875 4.984375 -2.21875 C 5.828125 -2.21875 6.488281 -2.457031 6.96875 -2.9375 C 7.445312 -3.414062 7.6875 -4.078125 7.6875 -4.921875 C 7.6875 -5.296875 7.597656 -5.601562 7.421875 -5.84375 C 7.253906 -6.082031 7.023438 -6.285156 6.734375 -6.453125 C 6.453125 -6.617188 6.128906 -6.757812 5.765625 -6.875 C 5.410156 -7 5.039062 -7.128906 4.65625 -7.265625 C 4.28125 -7.410156 3.910156 -7.570312 3.546875 -7.75 C 3.191406 -7.9375 2.875 -8.171875 2.59375 -8.453125 C 2.3125 -8.742188 2.082031 -9.097656 1.90625 -9.515625 C 1.738281 -9.941406 1.65625 -10.460938 1.65625 -11.078125 C 1.65625 -11.773438 1.78125 -12.441406 2.03125 -13.078125 C 2.289062 -13.722656 2.660156 -14.289062 3.140625 -14.78125 C 3.617188 -15.28125 4.203125 -15.675781 4.890625 -15.96875 C 5.578125 -16.257812 6.351562 -16.40625 7.21875 -16.40625 C 7.65625 -16.40625 8.078125 -16.359375 8.484375 -16.265625 C 8.890625 -16.179688 9.269531 -16.054688 9.625 -15.890625 C 9.976562 -15.734375 10.300781 -15.539062 10.59375 -15.3125 C 10.894531 -15.082031 11.15625 -14.828125 11.375 -14.546875 Z M 10.5 -13.328125 "/></g></g></g></g></g></g></g></svg>