<svg xmlns="http://www.w3.org/2000/svg" xmlns:xlink="http://www.w3.org/1999/xlink" width="150" zoomAndPan="magnify" viewBox="0 0 112.5 112.499997" height="150" preserveAspectRatio="xMidYMid meet" version="1.0"><defs><g/><clipPath id="8170a955f9"><path d="M 7 0 L 105 0 L 105 112.003906 L 7 112.003906 Z M 7 0 " clip-rule="nonzero"/></clipPath><clipPath id="da2c9d5e58"><path d="M 1 1 L 40.453125 1 L 40.453125 16.761719 L 1 16.761719 Z M 1 1 " clip-rule="nonzero"/></clipPath><clipPath id="3c16a8c96e"><rect x="0" width="41" y="0" height="17"/></clipPath><clipPath id="f7d850487c"><rect x="0" width="38" y="0" height="86"/></clipPath><clipPath id="c519fe53ff"><path d="M 0.289062 0 L 97.03125 0 L 97.03125 111.753906 L 0.289062 111.753906 Z M 0.289062 0 " clip-rule="nonzero"/></clipPath><clipPath id="5d938d5aea"><path d="M 0.0078125 3 L 9 3 L 9 13 L 0.0078125 13 Z M 0.0078125 3 " clip-rule="nonzero"/></clipPath><clipPath id="f516160738"><rect x="0" width="81" y="0" height="16"/></clipPath><clipPath id="bc5c7009fc"><rect x="0" width="98" y="0" height="113"/></clipPath></defs><g clip-path="url(#8170a955f9)"><g transform="matrix(1, 0, 0, 1, 7, -0.000000000000000624)"><g clip-path="url(#bc5c7009fc)"><g transform="matrix(1, 0, 0, 1, 40, 37)"><g clip-path="url(#3c16a8c96e)"><g clip-path="url(#da2c9d5e58)"><path fill="#29b554" d="M 1.457031 1.28125 L 40.367188 1.28125 L 40.367188 16.355469 L 1.457031 16.355469 L 1.457031 1.28125 " fill-opacity="1" fill-rule="nonzero"/></g><g fill="#ffffff" fill-opacity="1"><g transform="translate(5.417471, 12.15294)"><g><path d="M 6.078125 -4.75 C 6.078125 -4.113281 5.863281 -3.601562 5.4375 -3.21875 C 5.019531 -2.84375 4.453125 -2.65625 3.734375 -2.65625 L 1.734375 -2.65625 L 1.734375 0 L 0.8125 0 L 0.8125 -6.796875 L 3.671875 -6.796875 C 4.429688 -6.796875 5.019531 -6.617188 5.4375 -6.265625 C 5.863281 -5.910156 6.078125 -5.40625 6.078125 -4.75 Z M 5.140625 -4.75 C 5.140625 -5.625 4.613281 -6.0625 3.5625 -6.0625 L 1.734375 -6.0625 L 1.734375 -3.375 L 3.609375 -3.375 C 4.628906 -3.375 5.140625 -3.832031 5.140625 -4.75 Z M 5.140625 -4.75 "/></g></g></g><g fill="#ffffff" fill-opacity="1"><g transform="translate(13.30088, 12.15294)"><g><path d="M 0.8125 0 L 0.8125 -6.796875 L 1.734375 -6.796875 L 1.734375 -0.75 L 5.171875 -0.75 L 5.171875 0 Z M 0.8125 0 "/></g></g></g><g fill="#ffffff" fill-opacity="1"><g transform="translate(20.088102, 12.15294)"><g><path d="M 3.53125 0.09375 C 2.96875 0.09375 2.476562 -0.00390625 2.0625 -0.203125 C 1.65625 -0.410156 1.335938 -0.707031 1.109375 -1.09375 C 0.878906 -1.476562 0.765625 -1.9375 0.765625 -2.46875 L 0.765625 -6.796875 L 1.6875 -6.796875 L 1.6875 -2.546875 C 1.6875 -1.929688 1.84375 -1.460938 2.15625 -1.140625 C 2.46875 -0.816406 2.925781 -0.65625 3.53125 -0.65625 C 4.132812 -0.65625 4.609375 -0.820312 4.953125 -1.15625 C 5.296875 -1.488281 5.46875 -1.972656 5.46875 -2.609375 L 5.46875 -6.796875 L 6.375 -6.796875 L 6.375 -2.5625 C 6.375 -2.007812 6.253906 -1.53125 6.015625 -1.125 C 5.785156 -0.726562 5.457031 -0.425781 5.03125 -0.21875 C 4.613281 -0.0078125 4.113281 0.09375 3.53125 0.09375 Z M 3.53125 0.09375 "/></g></g></g><g fill="#ffffff" fill-opacity="1"><g transform="translate(28.517196, 12.15294)"><g><path d="M 6.140625 -1.875 C 6.140625 -1.25 5.894531 -0.765625 5.40625 -0.421875 C 4.914062 -0.078125 4.222656 0.09375 3.328125 0.09375 C 1.671875 0.09375 0.710938 -0.476562 0.453125 -1.625 L 1.34375 -1.8125 C 1.445312 -1.40625 1.664062 -1.101562 2 -0.90625 C 2.332031 -0.71875 2.785156 -0.625 3.359375 -0.625 C 3.960938 -0.625 4.425781 -0.722656 4.75 -0.921875 C 5.070312 -1.128906 5.234375 -1.429688 5.234375 -1.828125 C 5.234375 -2.046875 5.179688 -2.222656 5.078125 -2.359375 C 4.972656 -2.503906 4.828125 -2.617188 4.640625 -2.703125 C 4.460938 -2.796875 4.242188 -2.875 3.984375 -2.9375 C 3.734375 -3 3.457031 -3.066406 3.15625 -3.140625 C 2.613281 -3.253906 2.203125 -3.367188 1.921875 -3.484375 C 1.640625 -3.609375 1.421875 -3.742188 1.265625 -3.890625 C 1.109375 -4.035156 0.984375 -4.207031 0.890625 -4.40625 C 0.804688 -4.601562 0.765625 -4.828125 0.765625 -5.078125 C 0.765625 -5.660156 0.988281 -6.109375 1.4375 -6.421875 C 1.882812 -6.742188 2.523438 -6.90625 3.359375 -6.90625 C 4.128906 -6.90625 4.71875 -6.785156 5.125 -6.546875 C 5.53125 -6.316406 5.816406 -5.914062 5.984375 -5.34375 L 5.078125 -5.1875 C 4.972656 -5.539062 4.78125 -5.796875 4.5 -5.953125 C 4.21875 -6.117188 3.832031 -6.203125 3.34375 -6.203125 C 2.800781 -6.203125 2.382812 -6.113281 2.09375 -5.9375 C 1.8125 -5.757812 1.671875 -5.492188 1.671875 -5.140625 C 1.671875 -4.921875 1.722656 -4.742188 1.828125 -4.609375 C 1.941406 -4.472656 2.101562 -4.359375 2.3125 -4.265625 C 2.519531 -4.171875 2.9375 -4.054688 3.5625 -3.921875 C 3.769531 -3.867188 3.976562 -3.816406 4.1875 -3.765625 C 4.394531 -3.710938 4.59375 -3.648438 4.78125 -3.578125 C 4.976562 -3.515625 5.15625 -3.4375 5.3125 -3.34375 C 5.476562 -3.25 5.625 -3.132812 5.75 -3 C 5.875 -2.863281 5.96875 -2.703125 6.03125 -2.515625 C 6.101562 -2.335938 6.140625 -2.125 6.140625 -1.875 Z M 6.140625 -1.875 "/></g></g></g></g></g><g transform="matrix(1, 0, 0, 1, 22, -0.000000000000000624)"><g clip-path="url(#f7d850487c)"><g fill="#004aad" fill-opacity="1"><g transform="translate(1.443903, 67.680761)"><g><path d="M 14.984375 0 L 14.34375 -7.5625 L 8.96875 -7.5625 L 8.203125 0 L 0 0 L 6.859375 -47.0625 L 17.3125 -47.0625 L 24.09375 0 Z M 12.015625 -33.203125 L 9.96875 -14.90625 L 13.5625 -14.90625 Z M 12.015625 -33.203125 "/></g></g></g><g fill="#18375d" fill-opacity="1"><g transform="translate(23.568019, 67.680761)"><g/></g></g><g fill="#18375d" fill-opacity="1"><g transform="translate(30.351349, 67.680761)"><g/></g></g></g></g><g clip-path="url(#c519fe53ff)"><path fill="#29b554" d="M 97.164062 39.597656 L 94.976562 39.597656 L 94.976562 29.300781 L 48.726562 2.578125 L 2.476562 29.300781 L 2.476562 39.597656 L 0.289062 39.597656 L 0.289062 28.03125 L 48.726562 0.0625 L 97.164062 28.03125 Z M 97.164062 83.96875 L 97.164062 72.398438 L 94.976562 72.398438 L 94.976562 82.699219 L 48.726562 109.398438 L 2.476562 82.699219 L 2.476562 72.398438 L 0.289062 72.398438 L 0.289062 83.96875 L 48.726562 111.9375 Z M 97.164062 83.96875 " fill-opacity="1" fill-rule="nonzero"/></g><g transform="matrix(1, 0, 0, 1, 9, 69)"><g clip-path="url(#f516160738)"><g clip-path="url(#5d938d5aea)"><g fill="#004aad" fill-opacity="1"><g transform="translate(0.19483, 12.332925)"><g><path d="M 7.1875 0 L 5.625 0 L 6.09375 -3.8125 L 2.453125 -3.8125 L 1.984375 0 L 0.421875 0 L 1.484375 -8.671875 L 3.046875 -8.671875 L 2.578125 -4.90625 L 6.234375 -4.90625 L 6.703125 -8.671875 L 8.265625 -8.671875 Z M 7.1875 0 "/></g></g></g></g><g fill="#004aad" fill-opacity="1"><g transform="translate(8.533938, 12.332925)"><g><path d="M 8.671875 -4.90625 C 8.671875 -4.425781 8.613281 -3.96875 8.5 -3.53125 C 8.394531 -3.101562 8.242188 -2.703125 8.046875 -2.328125 C 7.847656 -1.960938 7.609375 -1.628906 7.328125 -1.328125 C 7.054688 -1.023438 6.75 -0.769531 6.40625 -0.5625 C 6.0625 -0.351562 5.6875 -0.191406 5.28125 -0.078125 C 4.875 0.0351562 4.453125 0.09375 4.015625 0.09375 C 3.460938 0.09375 2.960938 0 2.515625 -0.1875 C 2.078125 -0.382812 1.703125 -0.65625 1.390625 -1 C 1.085938 -1.34375 0.851562 -1.75 0.6875 -2.21875 C 0.519531 -2.6875 0.4375 -3.195312 0.4375 -3.75 C 0.4375 -4.226562 0.488281 -4.679688 0.59375 -5.109375 C 0.707031 -5.546875 0.863281 -5.945312 1.0625 -6.3125 C 1.257812 -6.6875 1.492188 -7.023438 1.765625 -7.328125 C 2.046875 -7.628906 2.359375 -7.882812 2.703125 -8.09375 C 3.046875 -8.3125 3.421875 -8.476562 3.828125 -8.59375 C 4.234375 -8.707031 4.660156 -8.765625 5.109375 -8.765625 C 5.660156 -8.765625 6.15625 -8.664062 6.59375 -8.46875 C 7.03125 -8.269531 7.398438 -8 7.703125 -7.65625 C 8.015625 -7.3125 8.253906 -6.90625 8.421875 -6.4375 C 8.585938 -5.96875 8.671875 -5.457031 8.671875 -4.90625 Z M 7.078125 -4.875 C 7.078125 -5.269531 7.023438 -5.625 6.921875 -5.9375 C 6.828125 -6.257812 6.6875 -6.535156 6.5 -6.765625 C 6.3125 -6.992188 6.082031 -7.171875 5.8125 -7.296875 C 5.550781 -7.421875 5.25 -7.484375 4.90625 -7.484375 C 4.476562 -7.484375 4.085938 -7.394531 3.734375 -7.21875 C 3.378906 -7.039062 3.078125 -6.789062 2.828125 -6.46875 C 2.578125 -6.144531 2.378906 -5.753906 2.234375 -5.296875 C 2.097656 -4.835938 2.03125 -4.332031 2.03125 -3.78125 C 2.03125 -3.382812 2.078125 -3.023438 2.171875 -2.703125 C 2.273438 -2.390625 2.414062 -2.117188 2.59375 -1.890625 C 2.78125 -1.671875 3.003906 -1.5 3.265625 -1.375 C 3.535156 -1.25 3.84375 -1.1875 4.1875 -1.1875 C 4.613281 -1.1875 5.003906 -1.273438 5.359375 -1.453125 C 5.722656 -1.628906 6.03125 -1.875 6.28125 -2.1875 C 6.53125 -2.507812 6.722656 -2.894531 6.859375 -3.34375 C 7.003906 -3.800781 7.078125 -4.3125 7.078125 -4.875 Z M 7.078125 -4.875 "/></g></g></g><g fill="#004aad" fill-opacity="1"><g transform="translate(17.304378, 12.332925)"><g><path d="M 4.9375 -3.46875 C 4.976562 -3.363281 5.007812 -3.253906 5.03125 -3.140625 C 5.0625 -3.035156 5.09375 -2.925781 5.125 -2.8125 C 5.164062 -2.925781 5.210938 -3.035156 5.265625 -3.140625 C 5.328125 -3.253906 5.390625 -3.363281 5.453125 -3.46875 L 8.46875 -8.40625 C 8.5 -8.46875 8.535156 -8.515625 8.578125 -8.546875 C 8.617188 -8.585938 8.660156 -8.613281 8.703125 -8.625 C 8.742188 -8.644531 8.789062 -8.65625 8.84375 -8.65625 C 8.894531 -8.664062 8.953125 -8.671875 9.015625 -8.671875 L 10.203125 -8.671875 L 9.125 0 L 7.765625 0 L 8.46875 -5.640625 C 8.476562 -5.742188 8.492188 -5.859375 8.515625 -5.984375 C 8.535156 -6.109375 8.5625 -6.234375 8.59375 -6.359375 L 5.609375 -1.421875 C 5.546875 -1.304688 5.460938 -1.21875 5.359375 -1.15625 C 5.253906 -1.101562 5.144531 -1.078125 5.03125 -1.078125 L 4.8125 -1.078125 C 4.6875 -1.078125 4.578125 -1.101562 4.484375 -1.15625 C 4.398438 -1.21875 4.335938 -1.304688 4.296875 -1.421875 L 2.515625 -6.34375 C 2.515625 -6.21875 2.507812 -6.097656 2.5 -5.984375 C 2.5 -5.867188 2.488281 -5.765625 2.46875 -5.671875 L 1.796875 0 L 0.421875 0 L 1.484375 -8.671875 L 2.65625 -8.671875 C 2.71875 -8.671875 2.773438 -8.664062 2.828125 -8.65625 C 2.878906 -8.65625 2.925781 -8.644531 2.96875 -8.625 C 3.007812 -8.613281 3.039062 -8.585938 3.0625 -8.546875 C 3.09375 -8.515625 3.125 -8.46875 3.15625 -8.40625 Z M 4.9375 -3.46875 "/></g></g></g><g fill="#004aad" fill-opacity="1"><g transform="translate(27.578494, 12.332925)"><g><path d="M 6.53125 -8.671875 L 6.375 -7.421875 L 2.890625 -7.421875 L 2.59375 -4.96875 L 5.328125 -4.96875 L 5.1875 -3.765625 L 2.4375 -3.765625 L 2.140625 -1.234375 L 5.625 -1.234375 L 5.484375 0 L 0.421875 0 L 1.484375 -8.671875 Z M 6.53125 -8.671875 "/></g></g></g><g fill="#004aad" fill-opacity="1"><g transform="translate(33.874755, 12.332925)"><g/></g></g><g fill="#004aad" fill-opacity="1"><g transform="translate(36.187179, 12.332925)"><g><path d="M 7.140625 -8.671875 L 6.984375 -7.390625 L 4.609375 -7.390625 L 3.703125 0 L 2.15625 0 L 3.0625 -7.390625 L 0.671875 -7.390625 L 0.828125 -8.671875 Z M 7.140625 -8.671875 "/></g></g></g><g fill="#004aad" fill-opacity="1"><g transform="translate(42.753026, 12.332925)"><g><path d="M 3.8125 -1.25 C 4.082031 -1.25 4.332031 -1.300781 4.5625 -1.40625 C 4.800781 -1.507812 5.007812 -1.65625 5.1875 -1.84375 C 5.363281 -2.039062 5.507812 -2.273438 5.625 -2.546875 C 5.738281 -2.816406 5.816406 -3.117188 5.859375 -3.453125 L 6.5 -8.671875 L 8.046875 -8.671875 L 7.40625 -3.453125 C 7.34375 -2.941406 7.207031 -2.46875 7 -2.03125 C 6.789062 -1.601562 6.523438 -1.226562 6.203125 -0.90625 C 5.878906 -0.59375 5.5 -0.347656 5.0625 -0.171875 C 4.632812 0.00390625 4.160156 0.09375 3.640625 0.09375 C 3.171875 0.09375 2.753906 0.0195312 2.390625 -0.125 C 2.035156 -0.269531 1.734375 -0.472656 1.484375 -0.734375 C 1.234375 -0.992188 1.039062 -1.304688 0.90625 -1.671875 C 0.78125 -2.046875 0.71875 -2.453125 0.71875 -2.890625 C 0.71875 -3.066406 0.726562 -3.253906 0.75 -3.453125 L 1.375 -8.671875 L 2.9375 -8.671875 L 2.296875 -3.46875 C 2.285156 -3.382812 2.273438 -3.304688 2.265625 -3.234375 C 2.265625 -3.171875 2.265625 -3.101562 2.265625 -3.03125 C 2.265625 -2.757812 2.296875 -2.515625 2.359375 -2.296875 C 2.429688 -2.078125 2.53125 -1.890625 2.65625 -1.734375 C 2.789062 -1.578125 2.953125 -1.457031 3.140625 -1.375 C 3.335938 -1.289062 3.5625 -1.25 3.8125 -1.25 Z M 3.8125 -1.25 "/></g></g></g><g fill="#004aad" fill-opacity="1"><g transform="translate(50.768633, 12.332925)"><g><path d="M 7.140625 -8.671875 L 6.984375 -7.390625 L 4.609375 -7.390625 L 3.703125 0 L 2.15625 0 L 3.0625 -7.390625 L 0.671875 -7.390625 L 0.828125 -8.671875 Z M 7.140625 -8.671875 "/></g></g></g><g fill="#004aad" fill-opacity="1"><g transform="translate(57.33448, 12.332925)"><g><path d="M 8.671875 -4.90625 C 8.671875 -4.425781 8.613281 -3.96875 8.5 -3.53125 C 8.394531 -3.101562 8.242188 -2.703125 8.046875 -2.328125 C 7.847656 -1.960938 7.609375 -1.628906 7.328125 -1.328125 C 7.054688 -1.023438 6.75 -0.769531 6.40625 -0.5625 C 6.0625 -0.351562 5.6875 -0.191406 5.28125 -0.078125 C 4.875 0.0351562 4.453125 0.09375 4.015625 0.09375 C 3.460938 0.09375 2.960938 0 2.515625 -0.1875 C 2.078125 -0.382812 1.703125 -0.65625 1.390625 -1 C 1.085938 -1.34375 0.851562 -1.75 0.6875 -2.21875 C 0.519531 -2.6875 0.4375 -3.195312 0.4375 -3.75 C 0.4375 -4.226562 0.488281 -4.679688 0.59375 -5.109375 C 0.707031 -5.546875 0.863281 -5.945312 1.0625 -6.3125 C 1.257812 -6.6875 1.492188 -7.023438 1.765625 -7.328125 C 2.046875 -7.628906 2.359375 -7.882812 2.703125 -8.09375 C 3.046875 -8.3125 3.421875 -8.476562 3.828125 -8.59375 C 4.234375 -8.707031 4.660156 -8.765625 5.109375 -8.765625 C 5.660156 -8.765625 6.15625 -8.664062 6.59375 -8.46875 C 7.03125 -8.269531 7.398438 -8 7.703125 -7.65625 C 8.015625 -7.3125 8.253906 -6.90625 8.421875 -6.4375 C 8.585938 -5.96875 8.671875 -5.457031 8.671875 -4.90625 Z M 7.078125 -4.875 C 7.078125 -5.269531 7.023438 -5.625 6.921875 -5.9375 C 6.828125 -6.257812 6.6875 -6.535156 6.5 -6.765625 C 6.3125 -6.992188 6.082031 -7.171875 5.8125 -7.296875 C 5.550781 -7.421875 5.25 -7.484375 4.90625 -7.484375 C 4.476562 -7.484375 4.085938 -7.394531 3.734375 -7.21875 C 3.378906 -7.039062 3.078125 -6.789062 2.828125 -6.46875 C 2.578125 -6.144531 2.378906 -5.753906 2.234375 -5.296875 C 2.097656 -4.835938 2.03125 -4.332031 2.03125 -3.78125 C 2.03125 -3.382812 2.078125 -3.023438 2.171875 -2.703125 C 2.273438 -2.390625 2.414062 -2.117188 2.59375 -1.890625 C 2.78125 -1.671875 3.003906 -1.5 3.265625 -1.375 C 3.535156 -1.25 3.84375 -1.1875 4.1875 -1.1875 C 4.613281 -1.1875 5.003906 -1.273438 5.359375 -1.453125 C 5.722656 -1.628906 6.03125 -1.875 6.28125 -2.1875 C 6.53125 -2.507812 6.722656 -2.894531 6.859375 -3.34375 C 7.003906 -3.800781 7.078125 -4.3125 7.078125 -4.875 Z M 7.078125 -4.875 "/></g></g></g><g fill="#004aad" fill-opacity="1"><g transform="translate(66.10492, 12.332925)"><g><path d="M 2.421875 -3.421875 L 2 0 L 0.46875 0 L 1.515625 -8.671875 L 3.984375 -8.671875 C 4.484375 -8.671875 4.910156 -8.613281 5.265625 -8.5 C 5.617188 -8.394531 5.910156 -8.25 6.140625 -8.0625 C 6.367188 -7.875 6.535156 -7.644531 6.640625 -7.375 C 6.753906 -7.113281 6.8125 -6.828125 6.8125 -6.515625 C 6.8125 -6.179688 6.765625 -5.863281 6.671875 -5.5625 C 6.578125 -5.269531 6.441406 -5.003906 6.265625 -4.765625 C 6.085938 -4.523438 5.867188 -4.316406 5.609375 -4.140625 C 5.359375 -3.960938 5.070312 -3.820312 4.75 -3.71875 C 4.84375 -3.664062 4.925781 -3.597656 5 -3.515625 C 5.070312 -3.429688 5.132812 -3.335938 5.1875 -3.234375 L 6.734375 0 L 5.34375 0 C 5.207031 0 5.09375 -0.0234375 5 -0.078125 C 4.914062 -0.128906 4.851562 -0.207031 4.8125 -0.3125 L 3.546875 -3.125 C 3.492188 -3.226562 3.429688 -3.300781 3.359375 -3.34375 C 3.296875 -3.394531 3.1875 -3.421875 3.03125 -3.421875 Z M 2.9375 -7.46875 L 2.5625 -4.53125 L 3.46875 -4.53125 C 3.78125 -4.53125 4.046875 -4.570312 4.265625 -4.65625 C 4.492188 -4.75 4.679688 -4.875 4.828125 -5.03125 C 4.972656 -5.1875 5.082031 -5.367188 5.15625 -5.578125 C 5.226562 -5.796875 5.265625 -6.023438 5.265625 -6.265625 C 5.265625 -6.640625 5.144531 -6.929688 4.90625 -7.140625 C 4.675781 -7.359375 4.320312 -7.46875 3.84375 -7.46875 Z M 2.9375 -7.46875 "/></g></g></g><g fill="#004aad" fill-opacity="1"><g transform="translate(73.347722, 12.332925)"><g><path d="M 5.609375 -7.109375 C 5.546875 -7.023438 5.484375 -6.960938 5.421875 -6.921875 C 5.367188 -6.890625 5.304688 -6.875 5.234375 -6.875 C 5.148438 -6.875 5.066406 -6.90625 4.984375 -6.96875 C 4.898438 -7.03125 4.800781 -7.097656 4.6875 -7.171875 C 4.570312 -7.253906 4.429688 -7.328125 4.265625 -7.390625 C 4.109375 -7.453125 3.921875 -7.484375 3.703125 -7.484375 C 3.484375 -7.484375 3.289062 -7.453125 3.125 -7.390625 C 2.957031 -7.328125 2.816406 -7.238281 2.703125 -7.125 C 2.585938 -7.019531 2.5 -6.890625 2.4375 -6.734375 C 2.382812 -6.578125 2.359375 -6.414062 2.359375 -6.25 C 2.359375 -6.0625 2.40625 -5.90625 2.5 -5.78125 C 2.59375 -5.664062 2.710938 -5.5625 2.859375 -5.46875 C 3.015625 -5.375 3.1875 -5.289062 3.375 -5.21875 C 3.570312 -5.144531 3.769531 -5.066406 3.96875 -4.984375 C 4.175781 -4.910156 4.378906 -4.820312 4.578125 -4.71875 C 4.773438 -4.613281 4.945312 -4.484375 5.09375 -4.328125 C 5.25 -4.179688 5.375 -4 5.46875 -3.78125 C 5.5625 -3.570312 5.609375 -3.316406 5.609375 -3.015625 C 5.609375 -2.585938 5.535156 -2.1875 5.390625 -1.8125 C 5.242188 -1.4375 5.03125 -1.109375 4.75 -0.828125 C 4.476562 -0.546875 4.148438 -0.320312 3.765625 -0.15625 C 3.378906 0.0078125 2.941406 0.09375 2.453125 0.09375 C 2.203125 0.09375 1.953125 0.0664062 1.703125 0.015625 C 1.460938 -0.0351562 1.234375 -0.109375 1.015625 -0.203125 C 0.796875 -0.304688 0.59375 -0.425781 0.40625 -0.5625 C 0.226562 -0.707031 0.0703125 -0.867188 -0.0625 -1.046875 L 0.484375 -1.78125 C 0.535156 -1.84375 0.59375 -1.890625 0.65625 -1.921875 C 0.726562 -1.960938 0.796875 -1.984375 0.859375 -1.984375 C 0.921875 -1.984375 0.984375 -1.960938 1.046875 -1.921875 C 1.109375 -1.878906 1.175781 -1.828125 1.25 -1.765625 C 1.320312 -1.710938 1.398438 -1.648438 1.484375 -1.578125 C 1.578125 -1.503906 1.675781 -1.4375 1.78125 -1.375 C 1.894531 -1.320312 2.019531 -1.273438 2.15625 -1.234375 C 2.300781 -1.203125 2.46875 -1.1875 2.65625 -1.1875 C 3.101562 -1.1875 3.453125 -1.3125 3.703125 -1.5625 C 3.960938 -1.820312 4.09375 -2.175781 4.09375 -2.625 C 4.09375 -2.820312 4.046875 -2.984375 3.953125 -3.109375 C 3.867188 -3.242188 3.75 -3.351562 3.59375 -3.4375 C 3.445312 -3.53125 3.273438 -3.609375 3.078125 -3.671875 C 2.890625 -3.734375 2.691406 -3.800781 2.484375 -3.875 C 2.285156 -3.945312 2.085938 -4.03125 1.890625 -4.125 C 1.703125 -4.226562 1.53125 -4.359375 1.375 -4.515625 C 1.226562 -4.671875 1.109375 -4.859375 1.015625 -5.078125 C 0.921875 -5.304688 0.875 -5.582031 0.875 -5.90625 C 0.875 -6.28125 0.941406 -6.640625 1.078125 -6.984375 C 1.222656 -7.328125 1.421875 -7.628906 1.671875 -7.890625 C 1.929688 -8.148438 2.242188 -8.359375 2.609375 -8.515625 C 2.972656 -8.671875 3.382812 -8.75 3.84375 -8.75 C 4.082031 -8.75 4.3125 -8.722656 4.53125 -8.671875 C 4.75 -8.628906 4.953125 -8.5625 5.140625 -8.46875 C 5.328125 -8.382812 5.5 -8.28125 5.65625 -8.15625 C 5.8125 -8.039062 5.945312 -7.910156 6.0625 -7.765625 Z M 5.609375 -7.109375 "/></g></g></g></g></g></g></g></g></svg>