<svg xmlns="http://www.w3.org/2000/svg" xmlns:xlink="http://www.w3.org/1999/xlink" width="140" zoomAndPan="magnify" viewBox="0 0 104.88 42" height="56" preserveAspectRatio="xMidYMid meet" version="1.0"><defs><g/><clipPath id="8355e37195"><path d="M 1.160156 0 L 103.601562 0 L 103.601562 41.023438 L 1.160156 41.023438 Z M 1.160156 0 " clip-rule="nonzero"/></clipPath><clipPath id="0f816cf2e0"><path d="M 18 0 L 45 0 L 45 41.023438 L 18 41.023438 Z M 18 0 " clip-rule="nonzero"/></clipPath><clipPath id="38eb090eaf"><path d="M 0.0390625 3 L 19 3 L 19 38 L 0.0390625 38 Z M 0.0390625 3 " clip-rule="nonzero"/></clipPath><clipPath id="a3e659b984"><rect x="0" width="27" y="0" height="42"/></clipPath><clipPath id="aac6371e6c"><path d="M 1.160156 0 L 24.328125 0 L 24.328125 41.023438 L 1.160156 41.023438 Z M 1.160156 0 " clip-rule="nonzero"/></clipPath><clipPath id="c81a18bd48"><path d="M 0.0742188 2 L 6 2 L 6 8 L 0.0742188 8 Z M 0.0742188 2 " clip-rule="nonzero"/></clipPath><clipPath id="d8d3ef3e9f"><path d="M 43 2 L 47.894531 2 L 47.894531 8 L 43 8 Z M 43 2 " clip-rule="nonzero"/></clipPath><clipPath id="3bbaee3ae1"><rect x="0" width="48" y="0" height="10"/></clipPath><clipPath id="2a7e796804"><path d="M 80.554688 0 L 103.601562 0 L 103.601562 41.023438 L 80.554688 41.023438 Z M 80.554688 0 " clip-rule="nonzero"/></clipPath></defs><g clip-path="url(#8355e37195)"><path fill="#ffffff" d="M 1.160156 0 L 103.71875 0 L 103.71875 41.023438 L 1.160156 41.023438 Z M 1.160156 0 " fill-opacity="1" fill-rule="nonzero"/><path fill="#ffffff" d="M 1.160156 0 L 103.71875 0 L 103.71875 41.023438 L 1.160156 41.023438 Z M 1.160156 0 " fill-opacity="1" fill-rule="nonzero"/></g><path fill="#29b554" d="M 31.640625 10.164062 L 86.898438 10.164062 L 86.898438 27.308594 L 31.640625 27.308594 L 31.640625 10.164062 " fill-opacity="1" fill-rule="nonzero"/><g fill="#ffffff" fill-opacity="1"><g transform="translate(36.331935, 22.033666)"><g><path d="M 7.203125 -5.640625 C 7.203125 -4.878906 6.953125 -4.269531 6.453125 -3.8125 C 5.960938 -3.363281 5.285156 -3.140625 4.421875 -3.140625 L 2.0625 -3.140625 L 2.0625 0 L 0.96875 0 L 0.96875 -8.078125 L 4.359375 -8.078125 C 5.265625 -8.078125 5.960938 -7.863281 6.453125 -7.4375 C 6.953125 -7.007812 7.203125 -6.410156 7.203125 -5.640625 Z M 6.109375 -5.625 C 6.109375 -6.675781 5.484375 -7.203125 4.234375 -7.203125 L 2.0625 -7.203125 L 2.0625 -4.015625 L 4.28125 -4.015625 C 5.5 -4.015625 6.109375 -4.550781 6.109375 -5.625 Z M 6.109375 -5.625 "/></g></g></g><g fill="#ffffff" fill-opacity="1"><g transform="translate(47.961407, 22.033666)"><g><path d="M 0.96875 0 L 0.96875 -8.078125 L 2.0625 -8.078125 L 2.0625 -0.890625 L 6.140625 -0.890625 L 6.140625 0 Z M 0.96875 0 "/></g></g></g><g fill="#ffffff" fill-opacity="1"><g transform="translate(58.291733, 22.033666)"><g><path d="M 4.1875 0.109375 C 3.53125 0.109375 2.953125 -0.0078125 2.453125 -0.25 C 1.960938 -0.488281 1.582031 -0.835938 1.3125 -1.296875 C 1.039062 -1.753906 0.90625 -2.300781 0.90625 -2.9375 L 0.90625 -8.078125 L 2 -8.078125 L 2 -3.03125 C 2 -2.289062 2.1875 -1.726562 2.5625 -1.34375 C 2.9375 -0.96875 3.476562 -0.78125 4.1875 -0.78125 C 4.90625 -0.78125 5.46875 -0.972656 5.875 -1.359375 C 6.28125 -1.753906 6.484375 -2.332031 6.484375 -3.09375 L 6.484375 -8.078125 L 7.5625 -8.078125 L 7.5625 -3.03125 C 7.5625 -2.382812 7.421875 -1.820312 7.140625 -1.34375 C 6.867188 -0.875 6.476562 -0.515625 5.96875 -0.265625 C 5.46875 -0.015625 4.875 0.109375 4.1875 0.109375 Z M 4.1875 0.109375 "/></g></g></g><g fill="#ffffff" fill-opacity="1"><g transform="translate(70.567917, 22.033666)"><g><path d="M 7.28125 -2.234375 C 7.28125 -1.484375 6.988281 -0.90625 6.40625 -0.5 C 5.832031 -0.09375 5.015625 0.109375 3.953125 0.109375 C 1.984375 0.109375 0.84375 -0.570312 0.53125 -1.9375 L 1.59375 -2.15625 C 1.71875 -1.664062 1.976562 -1.304688 2.375 -1.078125 C 2.769531 -0.847656 3.3125 -0.734375 4 -0.734375 C 4.695312 -0.734375 5.238281 -0.851562 5.625 -1.09375 C 6.007812 -1.34375 6.203125 -1.703125 6.203125 -2.171875 C 6.203125 -2.429688 6.140625 -2.644531 6.015625 -2.8125 C 5.898438 -2.976562 5.734375 -3.113281 5.515625 -3.21875 C 5.296875 -3.320312 5.035156 -3.410156 4.734375 -3.484375 C 4.429688 -3.554688 4.097656 -3.632812 3.734375 -3.71875 C 3.097656 -3.863281 2.613281 -4.003906 2.28125 -4.140625 C 1.945312 -4.285156 1.6875 -4.441406 1.5 -4.609375 C 1.3125 -4.785156 1.164062 -4.988281 1.0625 -5.21875 C 0.957031 -5.457031 0.90625 -5.726562 0.90625 -6.03125 C 0.90625 -6.726562 1.171875 -7.257812 1.703125 -7.625 C 2.234375 -8 2.988281 -8.1875 3.96875 -8.1875 C 4.882812 -8.1875 5.585938 -8.046875 6.078125 -7.765625 C 6.566406 -7.484375 6.90625 -7.007812 7.09375 -6.34375 L 6.015625 -6.140625 C 5.898438 -6.578125 5.675781 -6.890625 5.34375 -7.078125 C 5.007812 -7.273438 4.550781 -7.375 3.96875 -7.375 C 3.320312 -7.375 2.828125 -7.265625 2.484375 -7.046875 C 2.148438 -6.835938 1.984375 -6.519531 1.984375 -6.09375 C 1.984375 -5.84375 2.046875 -5.632812 2.171875 -5.46875 C 2.304688 -5.3125 2.492188 -5.175781 2.734375 -5.0625 C 2.984375 -4.945312 3.484375 -4.804688 4.234375 -4.640625 C 4.472656 -4.585938 4.71875 -4.53125 4.96875 -4.46875 C 5.21875 -4.414062 5.453125 -4.347656 5.671875 -4.265625 C 5.898438 -4.179688 6.113281 -4.082031 6.3125 -3.96875 C 6.507812 -3.851562 6.679688 -3.71875 6.828125 -3.5625 C 6.972656 -3.40625 7.082031 -3.21875 7.15625 -3 C 7.238281 -2.78125 7.28125 -2.523438 7.28125 -2.234375 Z M 7.28125 -2.234375 "/></g></g></g><g clip-path="url(#0f816cf2e0)"><g transform="matrix(1, 0, 0, 1, 18, 0.000000000000004377)"><g clip-path="url(#a3e659b984)"><g clip-path="url(#38eb090eaf)"><g fill="#004aad" fill-opacity="1"><g transform="translate(0.534191, 37.950244)"><g><path d="M 10.90625 0 L 10.453125 -5.5 L 6.53125 -5.5 L 5.96875 0 L 0 0 L 5 -34.28125 L 12.609375 -34.28125 L 17.546875 0 Z M 8.75 -24.1875 L 7.25 -10.859375 L 9.875 -10.859375 Z M 8.75 -24.1875 "/></g></g></g></g><g fill="#18375d" fill-opacity="1"><g transform="translate(16.648865, 37.950244)"><g/></g></g><g fill="#18375d" fill-opacity="1"><g transform="translate(21.589679, 37.950244)"><g/></g></g></g></g></g><g clip-path="url(#aac6371e6c)"><path fill="#29b554" d="M 17.652344 0 L 17.652344 0.925781 L 13.289062 0.925781 L 1.972656 20.511719 L 13.289062 40.097656 L 17.652344 40.097656 L 17.652344 41.023438 L 12.753906 41.023438 L 0.910156 20.511719 L 12.753906 0 Z M 36.441406 0 L 31.542969 0 L 31.542969 0.925781 L 35.902344 0.925781 L 47.210938 20.511719 L 35.902344 40.097656 L 31.542969 40.097656 L 31.542969 41.023438 L 36.441406 41.023438 L 48.285156 20.511719 Z M 36.441406 0 " fill-opacity="1" fill-rule="nonzero"/></g><g transform="matrix(1, 0, 0, 1, 40, 27)"><g clip-path="url(#3bbaee3ae1)"><g clip-path="url(#c81a18bd48)"><g fill="#004aad" fill-opacity="1"><g transform="translate(0.255466, 7.781643)"><g><path d="M 4.25 0 L 3.328125 0 L 3.609375 -2.25 L 1.453125 -2.25 L 1.171875 0 L 0.25 0 L 0.875 -5.125 L 1.8125 -5.125 L 1.53125 -2.90625 L 3.6875 -2.90625 L 3.96875 -5.125 L 4.890625 -5.125 Z M 4.25 0 "/></g></g></g></g><g fill="#004aad" fill-opacity="1"><g transform="translate(5.185777, 7.781643)"><g><path d="M 5.125 -2.90625 C 5.125 -2.625 5.09375 -2.351562 5.03125 -2.09375 C 4.96875 -1.84375 4.878906 -1.601562 4.765625 -1.375 C 4.648438 -1.15625 4.507812 -0.957031 4.34375 -0.78125 C 4.175781 -0.601562 3.988281 -0.453125 3.78125 -0.328125 C 3.582031 -0.203125 3.363281 -0.101562 3.125 -0.03125 C 2.882812 0.03125 2.632812 0.0625 2.375 0.0625 C 2.050781 0.0625 1.757812 0.00390625 1.5 -0.109375 C 1.238281 -0.234375 1.015625 -0.394531 0.828125 -0.59375 C 0.640625 -0.800781 0.5 -1.039062 0.40625 -1.3125 C 0.3125 -1.59375 0.265625 -1.894531 0.265625 -2.21875 C 0.265625 -2.5 0.296875 -2.765625 0.359375 -3.015625 C 0.421875 -3.273438 0.507812 -3.515625 0.625 -3.734375 C 0.738281 -3.960938 0.878906 -4.164062 1.046875 -4.34375 C 1.210938 -4.519531 1.394531 -4.671875 1.59375 -4.796875 C 1.800781 -4.921875 2.023438 -5.015625 2.265625 -5.078125 C 2.503906 -5.148438 2.753906 -5.1875 3.015625 -5.1875 C 3.347656 -5.1875 3.644531 -5.128906 3.90625 -5.015625 C 4.164062 -4.898438 4.382812 -4.738281 4.5625 -4.53125 C 4.75 -4.332031 4.890625 -4.09375 4.984375 -3.8125 C 5.078125 -3.53125 5.125 -3.226562 5.125 -2.90625 Z M 4.1875 -2.890625 C 4.1875 -3.117188 4.15625 -3.328125 4.09375 -3.515625 C 4.039062 -3.703125 3.957031 -3.863281 3.84375 -4 C 3.738281 -4.132812 3.601562 -4.238281 3.4375 -4.3125 C 3.28125 -4.382812 3.101562 -4.421875 2.90625 -4.421875 C 2.65625 -4.421875 2.421875 -4.367188 2.203125 -4.265625 C 1.992188 -4.160156 1.816406 -4.015625 1.671875 -3.828125 C 1.523438 -3.640625 1.410156 -3.410156 1.328125 -3.140625 C 1.242188 -2.867188 1.203125 -2.566406 1.203125 -2.234375 C 1.203125 -2.003906 1.226562 -1.796875 1.28125 -1.609375 C 1.34375 -1.421875 1.425781 -1.257812 1.53125 -1.125 C 1.644531 -0.988281 1.78125 -0.882812 1.9375 -0.8125 C 2.09375 -0.738281 2.269531 -0.703125 2.46875 -0.703125 C 2.726562 -0.703125 2.960938 -0.753906 3.171875 -0.859375 C 3.390625 -0.960938 3.570312 -1.109375 3.71875 -1.296875 C 3.863281 -1.484375 3.976562 -1.710938 4.0625 -1.984375 C 4.144531 -2.253906 4.1875 -2.554688 4.1875 -2.890625 Z M 4.1875 -2.890625 "/></g></g></g><g fill="#004aad" fill-opacity="1"><g transform="translate(10.371104, 7.781643)"><g><path d="M 2.921875 -2.046875 C 2.941406 -1.984375 2.960938 -1.921875 2.984375 -1.859375 C 3.003906 -1.796875 3.019531 -1.734375 3.03125 -1.671875 C 3.0625 -1.734375 3.09375 -1.796875 3.125 -1.859375 C 3.15625 -1.921875 3.191406 -1.984375 3.234375 -2.046875 L 5.015625 -4.984375 C 5.035156 -5.015625 5.054688 -5.039062 5.078125 -5.0625 C 5.097656 -5.082031 5.117188 -5.097656 5.140625 -5.109375 C 5.171875 -5.117188 5.203125 -5.125 5.234375 -5.125 C 5.265625 -5.125 5.300781 -5.125 5.34375 -5.125 L 6.03125 -5.125 L 5.40625 0 L 4.59375 0 L 5.015625 -3.34375 C 5.015625 -3.40625 5.019531 -3.472656 5.03125 -3.546875 C 5.050781 -3.617188 5.070312 -3.691406 5.09375 -3.765625 L 3.328125 -0.84375 C 3.285156 -0.769531 3.234375 -0.71875 3.171875 -0.6875 C 3.109375 -0.65625 3.039062 -0.640625 2.96875 -0.640625 L 2.84375 -0.640625 C 2.769531 -0.640625 2.707031 -0.65625 2.65625 -0.6875 C 2.601562 -0.71875 2.566406 -0.769531 2.546875 -0.84375 L 1.484375 -3.75 C 1.484375 -3.675781 1.476562 -3.601562 1.46875 -3.53125 C 1.46875 -3.46875 1.46875 -3.410156 1.46875 -3.359375 L 1.0625 0 L 0.25 0 L 0.875 -5.125 L 1.578125 -5.125 C 1.609375 -5.125 1.640625 -5.125 1.671875 -5.125 C 1.703125 -5.125 1.726562 -5.117188 1.75 -5.109375 C 1.78125 -5.097656 1.800781 -5.082031 1.8125 -5.0625 C 1.832031 -5.039062 1.847656 -5.015625 1.859375 -4.984375 Z M 2.921875 -2.046875 "/></g></g></g><g fill="#004aad" fill-opacity="1"><g transform="translate(16.445444, 7.781643)"><g><path d="M 3.875 -5.125 L 3.78125 -4.390625 L 1.71875 -4.390625 L 1.53125 -2.9375 L 3.15625 -2.9375 L 3.0625 -2.234375 L 1.453125 -2.234375 L 1.265625 -0.734375 L 3.328125 -0.734375 L 3.234375 0 L 0.25 0 L 0.875 -5.125 Z M 3.875 -5.125 "/></g></g></g><g fill="#004aad" fill-opacity="1"><g transform="translate(20.167968, 7.781643)"><g/></g></g><g fill="#004aad" fill-opacity="1"><g transform="translate(21.535137, 7.781643)"><g><path d="M 4.234375 -5.125 L 4.125 -4.375 L 2.734375 -4.375 L 2.1875 0 L 1.265625 0 L 1.8125 -4.375 L 0.40625 -4.375 L 0.5 -5.125 Z M 4.234375 -5.125 "/></g></g></g><g fill="#004aad" fill-opacity="1"><g transform="translate(25.417047, 7.781643)"><g><path d="M 2.25 -0.734375 C 2.414062 -0.734375 2.566406 -0.765625 2.703125 -0.828125 C 2.847656 -0.890625 2.972656 -0.976562 3.078125 -1.09375 C 3.179688 -1.207031 3.265625 -1.34375 3.328125 -1.5 C 3.398438 -1.664062 3.445312 -1.847656 3.46875 -2.046875 L 3.84375 -5.125 L 4.765625 -5.125 L 4.390625 -2.046875 C 4.347656 -1.742188 4.265625 -1.460938 4.140625 -1.203125 C 4.023438 -0.941406 3.867188 -0.71875 3.671875 -0.53125 C 3.484375 -0.351562 3.257812 -0.207031 3 -0.09375 C 2.738281 0.0078125 2.457031 0.0625 2.15625 0.0625 C 1.875 0.0625 1.625 0.0195312 1.40625 -0.0625 C 1.195312 -0.15625 1.019531 -0.28125 0.875 -0.4375 C 0.726562 -0.59375 0.613281 -0.773438 0.53125 -0.984375 C 0.457031 -1.203125 0.421875 -1.441406 0.421875 -1.703125 C 0.421875 -1.816406 0.425781 -1.929688 0.4375 -2.046875 L 0.8125 -5.125 L 1.734375 -5.125 L 1.359375 -2.046875 C 1.347656 -2.003906 1.34375 -1.960938 1.34375 -1.921875 C 1.34375 -1.878906 1.34375 -1.835938 1.34375 -1.796875 C 1.34375 -1.628906 1.363281 -1.476562 1.40625 -1.34375 C 1.445312 -1.21875 1.503906 -1.109375 1.578125 -1.015625 C 1.648438 -0.929688 1.742188 -0.863281 1.859375 -0.8125 C 1.972656 -0.757812 2.101562 -0.734375 2.25 -0.734375 Z M 2.25 -0.734375 "/></g></g></g><g fill="#004aad" fill-opacity="1"><g transform="translate(30.156095, 7.781643)"><g><path d="M 4.234375 -5.125 L 4.125 -4.375 L 2.734375 -4.375 L 2.1875 0 L 1.265625 0 L 1.8125 -4.375 L 0.40625 -4.375 L 0.5 -5.125 Z M 4.234375 -5.125 "/></g></g></g><g fill="#004aad" fill-opacity="1"><g transform="translate(34.038005, 7.781643)"><g><path d="M 5.125 -2.90625 C 5.125 -2.625 5.09375 -2.351562 5.03125 -2.09375 C 4.96875 -1.84375 4.878906 -1.601562 4.765625 -1.375 C 4.648438 -1.15625 4.507812 -0.957031 4.34375 -0.78125 C 4.175781 -0.601562 3.988281 -0.453125 3.78125 -0.328125 C 3.582031 -0.203125 3.363281 -0.101562 3.125 -0.03125 C 2.882812 0.03125 2.632812 0.0625 2.375 0.0625 C 2.050781 0.0625 1.757812 0.00390625 1.5 -0.109375 C 1.238281 -0.234375 1.015625 -0.394531 0.828125 -0.59375 C 0.640625 -0.800781 0.5 -1.039062 0.40625 -1.3125 C 0.3125 -1.59375 0.265625 -1.894531 0.265625 -2.21875 C 0.265625 -2.5 0.296875 -2.765625 0.359375 -3.015625 C 0.421875 -3.273438 0.507812 -3.515625 0.625 -3.734375 C 0.738281 -3.960938 0.878906 -4.164062 1.046875 -4.34375 C 1.210938 -4.519531 1.394531 -4.671875 1.59375 -4.796875 C 1.800781 -4.921875 2.023438 -5.015625 2.265625 -5.078125 C 2.503906 -5.148438 2.753906 -5.1875 3.015625 -5.1875 C 3.347656 -5.1875 3.644531 -5.128906 3.90625 -5.015625 C 4.164062 -4.898438 4.382812 -4.738281 4.5625 -4.53125 C 4.75 -4.332031 4.890625 -4.09375 4.984375 -3.8125 C 5.078125 -3.53125 5.125 -3.226562 5.125 -2.90625 Z M 4.1875 -2.890625 C 4.1875 -3.117188 4.15625 -3.328125 4.09375 -3.515625 C 4.039062 -3.703125 3.957031 -3.863281 3.84375 -4 C 3.738281 -4.132812 3.601562 -4.238281 3.4375 -4.3125 C 3.28125 -4.382812 3.101562 -4.421875 2.90625 -4.421875 C 2.65625 -4.421875 2.421875 -4.367188 2.203125 -4.265625 C 1.992188 -4.160156 1.816406 -4.015625 1.671875 -3.828125 C 1.523438 -3.640625 1.410156 -3.410156 1.328125 -3.140625 C 1.242188 -2.867188 1.203125 -2.566406 1.203125 -2.234375 C 1.203125 -2.003906 1.226562 -1.796875 1.28125 -1.609375 C 1.34375 -1.421875 1.425781 -1.257812 1.53125 -1.125 C 1.644531 -0.988281 1.78125 -0.882812 1.9375 -0.8125 C 2.09375 -0.738281 2.269531 -0.703125 2.46875 -0.703125 C 2.726562 -0.703125 2.960938 -0.753906 3.171875 -0.859375 C 3.390625 -0.960938 3.570312 -1.109375 3.71875 -1.296875 C 3.863281 -1.484375 3.976562 -1.710938 4.0625 -1.984375 C 4.144531 -2.253906 4.1875 -2.554688 4.1875 -2.890625 Z M 4.1875 -2.890625 "/></g></g></g><g fill="#004aad" fill-opacity="1"><g transform="translate(39.223332, 7.781643)"><g><path d="M 1.4375 -2.015625 L 1.1875 0 L 0.265625 0 L 0.90625 -5.125 L 2.359375 -5.125 C 2.648438 -5.125 2.898438 -5.09375 3.109375 -5.03125 C 3.328125 -4.96875 3.503906 -4.878906 3.640625 -4.765625 C 3.773438 -4.660156 3.875 -4.53125 3.9375 -4.375 C 4 -4.21875 4.03125 -4.046875 4.03125 -3.859375 C 4.03125 -3.660156 4 -3.472656 3.9375 -3.296875 C 3.882812 -3.117188 3.804688 -2.957031 3.703125 -2.8125 C 3.597656 -2.675781 3.46875 -2.554688 3.3125 -2.453125 C 3.164062 -2.347656 3 -2.265625 2.8125 -2.203125 C 2.863281 -2.171875 2.910156 -2.128906 2.953125 -2.078125 C 3.003906 -2.035156 3.046875 -1.976562 3.078125 -1.90625 L 3.984375 0 L 3.15625 0 C 3.082031 0 3.019531 -0.015625 2.96875 -0.046875 C 2.914062 -0.078125 2.875 -0.125 2.84375 -0.1875 L 2.09375 -1.84375 C 2.0625 -1.90625 2.023438 -1.945312 1.984375 -1.96875 C 1.941406 -2 1.878906 -2.015625 1.796875 -2.015625 Z M 1.734375 -4.421875 L 1.515625 -2.671875 L 2.046875 -2.671875 C 2.234375 -2.671875 2.394531 -2.695312 2.53125 -2.75 C 2.664062 -2.8125 2.773438 -2.890625 2.859375 -2.984375 C 2.941406 -3.078125 3.003906 -3.1875 3.046875 -3.3125 C 3.085938 -3.4375 3.109375 -3.566406 3.109375 -3.703125 C 3.109375 -3.929688 3.039062 -4.109375 2.90625 -4.234375 C 2.769531 -4.359375 2.5625 -4.421875 2.28125 -4.421875 Z M 1.734375 -4.421875 "/></g></g></g><g clip-path="url(#d8d3ef3e9f)"><g fill="#004aad" fill-opacity="1"><g transform="translate(43.505476, 7.781643)"><g><path d="M 3.3125 -4.203125 C 3.28125 -4.160156 3.25 -4.125 3.21875 -4.09375 C 3.1875 -4.070312 3.144531 -4.0625 3.09375 -4.0625 C 3.050781 -4.0625 3.003906 -4.082031 2.953125 -4.125 C 2.898438 -4.164062 2.835938 -4.207031 2.765625 -4.25 C 2.703125 -4.289062 2.625 -4.332031 2.53125 -4.375 C 2.4375 -4.414062 2.320312 -4.4375 2.1875 -4.4375 C 2.0625 -4.4375 1.945312 -4.414062 1.84375 -4.375 C 1.75 -4.332031 1.664062 -4.28125 1.59375 -4.21875 C 1.53125 -4.15625 1.476562 -4.078125 1.4375 -3.984375 C 1.40625 -3.898438 1.390625 -3.804688 1.390625 -3.703125 C 1.390625 -3.585938 1.414062 -3.492188 1.46875 -3.421875 C 1.53125 -3.347656 1.601562 -3.285156 1.6875 -3.234375 C 1.78125 -3.179688 1.882812 -3.132812 2 -3.09375 C 2.113281 -3.050781 2.226562 -3.003906 2.34375 -2.953125 C 2.46875 -2.910156 2.585938 -2.859375 2.703125 -2.796875 C 2.828125 -2.734375 2.929688 -2.65625 3.015625 -2.5625 C 3.109375 -2.46875 3.179688 -2.359375 3.234375 -2.234375 C 3.285156 -2.109375 3.3125 -1.957031 3.3125 -1.78125 C 3.3125 -1.53125 3.269531 -1.289062 3.1875 -1.0625 C 3.101562 -0.84375 2.976562 -0.648438 2.8125 -0.484375 C 2.65625 -0.316406 2.460938 -0.179688 2.234375 -0.078125 C 2.003906 0.015625 1.742188 0.0625 1.453125 0.0625 C 1.304688 0.0625 1.160156 0.046875 1.015625 0.015625 C 0.867188 -0.015625 0.726562 -0.0625 0.59375 -0.125 C 0.46875 -0.1875 0.347656 -0.257812 0.234375 -0.34375 C 0.128906 -0.425781 0.0390625 -0.515625 -0.03125 -0.609375 L 0.296875 -1.0625 C 0.316406 -1.09375 0.347656 -1.117188 0.390625 -1.140625 C 0.429688 -1.160156 0.472656 -1.171875 0.515625 -1.171875 C 0.546875 -1.171875 0.578125 -1.15625 0.609375 -1.125 C 0.648438 -1.101562 0.691406 -1.078125 0.734375 -1.046875 C 0.785156 -1.015625 0.835938 -0.976562 0.890625 -0.9375 C 0.941406 -0.894531 1 -0.851562 1.0625 -0.8125 C 1.125 -0.78125 1.195312 -0.753906 1.28125 -0.734375 C 1.363281 -0.710938 1.460938 -0.703125 1.578125 -0.703125 C 1.835938 -0.703125 2.039062 -0.773438 2.1875 -0.921875 C 2.34375 -1.078125 2.421875 -1.285156 2.421875 -1.546875 C 2.421875 -1.671875 2.394531 -1.769531 2.34375 -1.84375 C 2.289062 -1.914062 2.21875 -1.976562 2.125 -2.03125 C 2.039062 -2.082031 1.941406 -2.128906 1.828125 -2.171875 C 1.710938 -2.210938 1.59375 -2.253906 1.46875 -2.296875 C 1.351562 -2.335938 1.238281 -2.382812 1.125 -2.4375 C 1.007812 -2.5 0.90625 -2.578125 0.8125 -2.671875 C 0.726562 -2.765625 0.65625 -2.875 0.59375 -3 C 0.539062 -3.132812 0.515625 -3.300781 0.515625 -3.5 C 0.515625 -3.71875 0.554688 -3.925781 0.640625 -4.125 C 0.722656 -4.332031 0.835938 -4.515625 0.984375 -4.671875 C 1.140625 -4.828125 1.328125 -4.953125 1.546875 -5.046875 C 1.765625 -5.140625 2.007812 -5.1875 2.28125 -5.1875 C 2.414062 -5.1875 2.546875 -5.171875 2.671875 -5.140625 C 2.804688 -5.109375 2.925781 -5.066406 3.03125 -5.015625 C 3.144531 -4.960938 3.25 -4.898438 3.34375 -4.828125 C 3.4375 -4.753906 3.519531 -4.675781 3.59375 -4.59375 Z M 3.3125 -4.203125 "/></g></g></g></g></g></g><g clip-path="url(#2a7e796804)"><path fill="#29b554" d="M 87.230469 41.023438 L 87.230469 40.097656 L 91.589844 40.097656 L 102.90625 20.511719 L 91.589844 0.925781 L 87.230469 0.925781 L 87.230469 0 L 92.128906 0 L 103.972656 20.511719 L 92.128906 41.023438 Z M 68.441406 41.023438 L 73.339844 41.023438 L 73.339844 40.097656 L 68.976562 40.097656 L 57.671875 20.511719 L 68.976562 0.925781 L 73.339844 0.925781 L 73.339844 0 L 68.441406 0 L 56.597656 20.511719 Z M 68.441406 41.023438 " fill-opacity="1" fill-rule="nonzero"/></g></svg>